<?xml version="1.0" encoding="UTF-8" standalone="no"?>
<svg width="16px" height="16px" viewBox="0 0 16 16" version="1.1" xmlns="http://www.w3.org/2000/svg" xmlns:xlink="http://www.w3.org/1999/xlink">
    <!-- Generator: Sketch 41.2 (35397) - http://www.bohemiancoding.com/sketch -->
    <title>Instagram</title>
    <desc>Created with Sketch.</desc>
    <defs></defs>
    <g id="Symbols" stroke="none" stroke-width="1" fill="none" fill-rule="evenodd">
        <g id="Instagram" fill="#999999">
            <path d="M12.4145295,13.5862069 L3.15645404,13.5862069 C3.13183809,13.5822368 3.10705693,13.5774395 3.08244098,13.5744619 C2.573436,13.5089545 2.145548,13.1198803 2.03221551,12.6179878 C2.01899889,12.5594281 2.01057329,12.5000414 2,12.4411509 L2,3.1455523 C2.00379978,3.12388192 2.00826039,3.10237697 2.01123412,3.08070659 C2.08425594,2.56061758 2.46357286,2.14722622 2.97621242,2.03027236 C3.0313918,2.01770023 3.08772763,2.01009079 3.14373305,2 L12.4272505,2 C12.4487275,2.00380472 12.4700393,2.00860198 12.4918467,2.01141417 C13.017042,2.08337305 13.4447648,2.48634278 13.5460372,3.00560468 C13.5559496,3.05622403 13.5628884,3.10717423 13.5709835,3.157959 L13.5709835,12.4282479 C13.5625579,12.4798598 13.5552888,12.5321334 13.5453763,12.5835798 C13.4530252,13.059501 13.0669348,13.4541996 12.5944407,13.5546112 C12.5349659,13.5675141 12.4746651,13.5759507 12.4145295,13.5862069 L12.4145295,13.5862069 Z M3.17477377,6.67922069 L3.17477377,6.71101708 C3.17477377,8.454771 3.17460575,10.1985249 3.17494178,11.9422789 C3.17494178,12.193117 3.39184756,12.408794 3.6423561,12.408794 C6.40383049,12.4089622 9.16513687,12.4089622 11.9266113,12.408794 C12.179472,12.408794 12.3952017,12.1934534 12.3952017,11.9407647 C12.3953697,10.1990296 12.3952017,8.45746276 12.3952017,6.71589589 L12.3952017,6.6797254 L11.2718616,6.6797254 C11.4304666,7.18728986 11.4791906,7.70360252 11.4170255,8.22984104 C11.3545244,8.7562478 11.1851665,9.2461476 10.9092879,9.69853104 C10.6332412,10.1514192 10.2753719,10.5265828 9.83719197,10.8251996 C8.70141886,11.5997528 7.20609627,11.6678879 6.00093346,10.9905745 C5.39171552,10.6485531 4.9133803,10.1716074 4.57987296,9.55704555 C4.08238418,8.63999754 4.00291366,7.67752613 4.29475359,6.67888423 C3.92209904,6.67922069 3.55095661,6.67922069 3.17477377,6.67922069 L3.17477377,6.67922069 Z M7.78557577,5.40534663 C6.48044478,5.40450545 5.41943779,6.45597309 5.40112429,7.75693296 C5.38230675,9.09288568 6.45037031,10.1519239 7.73080328,10.1795144 C9.06315251,10.2081143 10.1407929,9.14217848 10.1688512,7.84576095 C10.1975815,6.50879882 9.12061322,5.40450545 7.78557577,5.40534663 L7.78557577,5.40534663 Z M11.3614129,4.92671856 L11.3614129,4.92453151 C11.5549648,4.92453151 11.7491887,4.92823267 11.9429086,4.9235221 C12.192073,4.91729741 12.3950337,4.70347095 12.3950337,4.45364224 C12.3952017,4.08167505 12.3952017,3.70953963 12.3950337,3.33757244 C12.3950337,3.07075201 12.1841764,2.85843966 11.9180426,2.85827143 C11.5475722,2.85810319 11.1771018,2.85793496 10.8064634,2.85827143 C10.5410017,2.8586079 10.3294723,3.07142495 10.3293043,3.33824537 C10.3291363,3.7070161 10.3281282,4.07578683 10.3306484,4.4447258 C10.3309845,4.49973858 10.3414013,4.55693842 10.3588747,4.60909122 C10.4254082,4.80542125 10.6050149,4.92587739 10.8249449,4.92688679 C11.0037116,4.92722326 11.1824783,4.92671856 11.3614129,4.92671856 L11.3614129,4.92671856 Z"></path>
        </g>
    </g>
</svg>