<?xml version="1.0" encoding="UTF-8" standalone="no"?>
<svg width="16px" height="16px" viewBox="0 0 16 16" version="1.1" xmlns="http://www.w3.org/2000/svg" xmlns:xlink="http://www.w3.org/1999/xlink">
    <!-- Generator: Sketch 41.2 (35397) - http://www.bohemiancoding.com/sketch -->
    <title>Twitter</title>
    <desc>Created with Sketch.</desc>
    <defs></defs>
    <g id="Symbols" stroke="none" stroke-width="1" fill="none" fill-rule="evenodd">
        <g id="Twitter" fill="#999999">
            <path d="M9.00708068,3.10932746 C7.9968326,3.4775091 7.35835581,4.42659955 7.43109367,5.46568996 L7.45533963,5.86659886 L7.0512404,5.81750797 C5.58031919,5.62932624 4.29528364,4.99114473 3.20421571,3.91932707 L2.67080472,3.38750914 L2.53341099,3.78023622 C2.24245954,4.65569035 2.42834519,5.58023536 3.03449403,6.20205324 C3.35777342,6.54568944 3.28503556,6.59478032 2.72737862,6.39023497 C2.53341099,6.32478045 2.36368931,6.27568957 2.34752534,6.30023501 C2.29095145,6.35750771 2.48491908,7.1020528 2.63847679,7.39659812 C2.84860839,7.80568883 3.27695357,8.20659773 3.74570868,8.44387034 L4.14172593,8.63205207 L3.67297082,8.64023388 C3.22037968,8.64023388 3.20421571,8.6484157 3.25270762,8.82023379 C3.41434731,9.35205172 4.0528241,9.9165969 4.76403874,10.1620513 L5.26512179,10.3338694 L4.82869462,10.5956875 C4.18213585,10.9720509 3.4224293,11.1847781 2.66272274,11.2011417 C2.29903343,11.2093236 2,11.2420508 2,11.2665963 C2,11.3484144 2.98600213,11.806596 3.55982303,11.9865959 C5.28128576,12.5184138 7.32602787,12.289323 8.86160495,11.3811417 C9.95267288,10.7347783 11.0437408,9.45023349 11.5529058,8.20659773 C11.8276933,7.54387077 12.1024808,6.33296227 12.1024808,5.75205346 C12.1024808,5.37569 12.1267267,5.32659912 12.5793179,4.87659933 C12.8460234,4.61478128 13.0965649,4.32841778 13.1450568,4.24659964 C13.2258767,4.09114517 13.2177947,4.09114517 12.8056135,4.23023601 C12.1186448,4.47569043 12.0216609,4.44296318 12.3611043,4.07478154 C12.6116458,3.81296348 12.9106793,3.33841826 12.9106793,3.19932741 C12.9106793,3.17478197 12.7894495,3.21569104 12.6520557,3.28932737 C12.50658,3.37114551 12.1833006,3.49387273 11.9408411,3.56750905 L11.5044139,3.7065999 L11.1083967,3.43660003 C10.8901831,3.28932737 10.5830677,3.12569109 10.421428,3.0766002 C10.0092468,2.9620548 9.37885197,2.97841843 9.00708068,3.10932746 L9.00708068,3.10932746 Z"></path>
        </g>
    </g>
</svg>