<?xml version="1.0" encoding="utf-8"?>
<!-- Generator: Adobe Illustrator 17.0.0, SVG Export Plug-In . SVG Version: 6.00 Build 0)  -->
<!DOCTYPE svg PUBLIC "-//W3C//DTD SVG 1.1//EN" "http://www.w3.org/Graphics/SVG/1.1/DTD/svg11.dtd">
<svg version="1.1" id="Layer_1" xmlns="http://www.w3.org/2000/svg" xmlns:xlink="http://www.w3.org/1999/xlink" x="0px" y="0px"
	 width="925.026px" height="225.616px" viewBox="0 0 925.026 225.616" enable-background="new 0 0 925.026 225.616"
	 xml:space="preserve">
<g>
	<g id="LOGO_BIRD">
		<g>
			<path fill="#FFFFFF" d="M53.981,38.858c44.347,0,81.856,24.366,92.995,57.338c13.893-13.355,27.781-25.781,39.479-32.038
				c15.991-8.553,26.031-8.925,36.444-9.296c10.412-0.372,20.453,0.371,20.453,0.371s-20.826-0.371-38.304,8.181
				c-15.331,7.503-32.379,21.585-55.409,43.753c0.465,3.074,0.707,6.203,0.707,9.376c0,1.996-0.096,3.974-0.28,5.933
				c-0.401-4.548-1.239-8.999-2.475-13.331c-2.588,2.506-5.251,5.112-7.994,7.82c-28.263,27.892-56.526,51.691-69.17,55.038
				s-25.288,3.719-34.957,3.347s-23.429-3.347-23.429-3.347c2.231,0,31.238,1.116,47.601-4.091
				c16.362-5.206,53.551-38.676,72.145-56.898c4-3.921,8.071-7.928,12.153-11.889C128.891,65.464,88.965,41.297,42.272,41.297
				c-5.78,0-11.453,0.374-16.99,1.086C34.355,40.094,43.993,38.858,53.981,38.858L53.981,38.858z"/>
			<path fill="#EEA051" d="M217.677,58.724v143.911H38.024v-27.207c9.286,0.209,20.845-0.364,32.403-3.424
				c12.644-3.347,40.907-27.147,69.17-55.038c2.744-2.708,5.406-5.313,7.994-7.82c1.235,4.331,2.074,8.783,2.475,13.331
				c0.184-1.959,0.28-3.937,0.28-5.933c0-3.173-0.242-6.301-0.707-9.376c23.03-22.168,40.078-36.251,55.409-43.753
				C209.178,61.393,213.493,59.871,217.677,58.724L217.677,58.724z"/>
			<path fill="#CCCECF" d="M38.024,171.492V41.366c1.41-0.045,2.826-0.067,4.249-0.067c46.693,0,86.619,24.167,101.668,57.828
				c-4.083,3.961-8.153,7.968-12.153,11.889c-18.594,18.222-55.782,51.691-72.145,56.898
				C53.519,169.862,45.624,170.924,38.024,171.492L38.024,171.492z"/>
			<path fill="#6C8BC6" d="M38.024,22.982h179.652v32.103c-8.715,0.5-17.904,1.951-31.222,9.073
				c-11.698,6.257-25.587,18.683-39.479,32.038C135.836,63.224,98.328,38.859,53.98,38.859c-5.434,0-10.764,0.365-15.957,1.067
				L38.024,22.982L38.024,22.982z"/>
		</g>
	</g>
	<g id="Text">
		<g>
			<g enable-background="new    ">
				<path fill="#FFFFFF" d="M290.865,90.885l-0.877,11.301c-3.795,6.203-10.236,10.725-20.234,10.725
					c-15.059-0.071-25.716-10.368-25.716-26.282c0-15.625,10.297-26.138,26.138-26.138c7.057,0,12.817,2.088,17.032,4.862
					l1.453,10.17h-0.599c-2.188-8.405-9.244-12.87-17.898-12.875c-12.66,0-20.724,9.577-20.724,23.906
					c0,14.473,8.208,23.906,20.315,24.199c10.224-0.03,18.875-5.121,20.513-19.867L290.865,90.885z"/>
				<path fill="#FFFFFF" d="M336.436,106.983c1.468,2.962,3.635,4.197,5.558,4.197h0.544v0.72h-14.792v-0.714h0.572
					c1.642,0,3.488-1.562,2.545-4.321l-3.934-9.582h-18.215l-3.964,9.384c-1.1,2.882,0.793,4.521,2.474,4.521h0.572v0.714h-13.72
					v-0.721h0.571c1.916,0,4.168-1.225,5.646-4.159l14.908-31.916c-0.021,0,2.623-5.533,2.771-7.417h0.683L336.436,106.983z
					 M326.044,95.124l-8.09-19.706l-8.326,19.706H326.044z"/>
				<path fill="#FFFFFF" d="M364.179,68.698c9.078,0,14.64,4.387,14.64,11.66c0,6.107-4.733,11.21-11.196,11.857
					c1.571,0.713,4.004,3.456,5.547,5.644c-0.011,0,3.323,4.513,6.301,7.851c2.931,3.286,4.947,5.437,8.94,5.471v0.722h-2.269
					c-7.966,0-11.11-3.622-13.369-6.336c-0.814-0.979-6.492-9.159-7.056-9.865c-1.95-2.443-4.448-4.849-7.297-4.849v-0.666
					c-0.002,0,1.775,0.03,4.13-0.03c3.982-0.101,8.52-0.14,10.585-6.192c0.344-1.009,0.548-2.526,0.503-4.104
					c-0.152-5.395-3.783-8.564-9.577-8.857c-4.047-0.204-7.595-0.024-8.28-0.063v36.341c0.044,2.163,1.774,3.904,4.09,3.904h0.975
					l0.013,0.72h-14.726l0.013-0.72h0.972c2.277,0,3.996-1.689,4.09-3.807V73.164c-0.074-2.135-1.8-3.747-4.091-3.747h-0.972
					l-0.013-0.721L364.179,68.698z"/>
				<path fill="#FFFFFF" d="M420.533,111.904H391.28l0.013-0.72h0.988c2.323,0,4.07-1.698,4.157-3.822V73.189
					c0-2.146-1.819-3.771-4.159-3.771h-0.989l-0.013-0.72h21.035c2.896-0.021,6.791-0.642,8.044-1.129v8.147l-0.783-0.009v-1.106
					c0-2.02-1.419-3.658-3.611-3.701h-14.93v18.318h12.301c1.997-0.041,2.918-1.393,2.918-3.057v-0.915l0.784-0.008v10.114
					l-0.784-0.008v-0.915c0-1.617-0.87-2.939-2.75-3.052h-12.469v18.319h11.26c6.917-0.093,9.381-3.466,11.426-8.127h0.78
					L420.533,111.904z"/>
				<path fill="#FFFFFF" d="M459.124,111.904h-29.252l0.013-0.72h0.988c2.323,0,4.07-1.698,4.157-3.822V73.189
					c0-2.146-1.819-3.771-4.159-3.771h-0.989l-0.013-0.72h21.035c2.896-0.021,6.791-0.642,8.044-1.129v8.147l-0.783-0.009v-1.106
					c0-2.02-1.419-3.658-3.611-3.701h-14.93v18.318h12.301c1.997-0.041,2.918-1.393,2.918-3.057v-0.915l0.784-0.008v10.114
					l-0.784-0.008v-0.915c0-1.617-0.87-2.939-2.75-3.052h-12.469v18.319h11.26c6.917-0.093,9.381-3.466,11.426-8.127h0.78
					L459.124,111.904z"/>
				<path fill="#FFFFFF" d="M486.505,68.698c9.078,0,14.64,4.387,14.64,11.66c0,6.107-4.733,11.21-11.196,11.857
					c1.571,0.713,4.005,3.456,5.548,5.644c-0.012,0,3.323,4.513,6.301,7.851c2.931,3.286,4.946,5.437,8.94,5.471v0.722h-2.269
					c-7.966,0-11.11-3.622-13.369-6.336c-0.814-0.979-6.491-9.159-7.056-9.865c-1.95-2.443-4.447-4.849-7.297-4.849v-0.666
					c-0.002,0,1.774,0.03,4.13-0.03c3.982-0.101,8.52-0.14,10.585-6.192c0.344-1.009,0.548-2.526,0.503-4.104
					c-0.152-5.395-3.783-8.564-9.577-8.857c-4.047-0.204-7.595-0.024-8.279-0.063v36.341c0.044,2.163,1.773,3.904,4.09,3.904h0.975
					l0.013,0.72H468.46l0.013-0.72h0.973c2.276,0,3.996-1.689,4.09-3.807V73.164c-0.074-2.135-1.801-3.747-4.091-3.747h-0.973
					l-0.013-0.721L486.505,68.698z"/>
				<path fill="#FFFFFF" d="M566.983,61.495l-0.011,0.721h-1.329c-2.409,0-4.367,1.914-4.443,4.304v37.204
					c0,4.639,0.656,9.187,0.656,9.187h-0.653l-39.271-41.888v35.853c0.074,2.392,2.033,4.309,4.443,4.309h1.329l0.011,0.72h-14.832
					l0.011-0.72h1.329c2.428,0,4.397-1.945,4.444-4.361V69.413c0-4.916-0.663-8.996-0.663-8.996h0.71l39.214,41.873V66.579
					c-0.046-2.417-2.016-4.364-4.445-4.364h-1.328l-0.011-0.721L566.983,61.495z"/>
				<path fill="#FFFFFF" d="M602.692,111.904h-29.253l0.013-0.72h0.989c2.322,0,4.069-1.698,4.156-3.822V73.189
					c0-2.146-1.818-3.771-4.158-3.771h-0.989l-0.013-0.72h21.035c2.896-0.021,6.791-0.642,8.044-1.129v8.147l-0.783-0.009v-1.106
					c0-2.02-1.418-3.658-3.61-3.701h-14.931v18.318h12.302c1.997-0.041,2.919-1.393,2.919-3.057v-0.915l0.783-0.008v10.114
					l-0.783-0.008v-0.915c0-1.617-0.87-2.939-2.751-3.052h-12.47v18.319h11.26c6.918-0.093,9.381-3.466,11.426-8.127h0.781
					L602.692,111.904z"/>
				<path fill="#FFFFFF" d="M641.33,68.622c2.86,0,6.794-0.634,8.043-1.129v8.108l-0.767-0.01v-1.106
					c-0.002-2.022-1.417-3.663-3.603-3.702h-13.03v36.584c0.093,2.121,1.944,3.814,4.222,3.814h0.835l0.011,0.72h-14.839l0.011-0.72
					h0.836c2.308,0,4.183-1.741,4.226-3.903V70.784h-13.04c-2.186,0.038-3.6,1.679-3.6,3.701v1.106l-0.77,0.01v-8.108
					c1.25,0.495,5.184,1.129,8.015,1.129C617.88,68.622,641.33,68.622,641.33,68.622z"/>
				<path fill="#FFFFFF" d="M723.032,88.472c-2.328,0-3.638,1.175-3.604,3.257v11.908c-3.283,4.363-10.012,9.274-20.824,9.274
					c-15.312-0.071-25.881-10.539-25.881-26.21c0-15.727,10.568-26.21,25.859-26.21c7.92,0,13.225,2.139,17.454,4.862l1.453,10.17
					h-0.599c-2.188-8.24-8.778-12.875-18.287-12.875c-12.205,0-20.479,9.622-20.479,24.056c0,14.369,8.274,23.991,20.479,24.055
					c6.259,0,12.096-2.407,16.249-6.245V91.755c0-2.103-1.38-3.284-3.704-3.284h-1.136V87.75h14.104v0.721L723.032,88.472z"/>
				<path fill="#FFFFFF" d="M747.144,68.698c9.077,0,14.64,4.387,14.64,11.66c0,6.107-4.734,11.21-11.196,11.857
					c1.571,0.713,4.004,3.456,5.547,5.644c-0.012,0,3.323,4.513,6.301,7.851c2.931,3.286,4.946,5.437,8.94,5.471v0.722h-2.269
					c-7.966,0-11.109-3.622-13.368-6.336c-0.814-0.979-6.492-9.159-7.057-9.865c-1.949-2.443-4.447-4.849-7.297-4.849v-0.666
					c-0.002,0,1.775,0.03,4.13-0.03c3.982-0.101,8.52-0.14,10.585-6.192c0.344-1.009,0.548-2.526,0.503-4.104
					c-0.151-5.395-3.783-8.564-9.576-8.857c-4.047-0.204-7.596-0.024-8.28-0.063v36.341c0.045,2.163,1.774,3.904,4.091,3.904h0.974
					l0.014,0.72h-14.727l0.013-0.72h0.973c2.276,0,3.996-1.689,4.09-3.807V73.164c-0.073-2.135-1.8-3.747-4.091-3.747h-0.972
					l-0.014-0.721L747.144,68.698z"/>
				<path fill="#FFFFFF" d="M819.957,90.299c0,13.381-10.864,22.609-24.297,22.609c-13.434,0-24.298-9.229-24.298-22.609
					c0-13.382,10.864-22.61,24.298-22.61C809.093,67.688,819.957,76.917,819.957,90.299z M814.624,90.299
					c0-12.175-8.373-20.456-18.964-20.456c-10.593,0-18.963,8.281-18.963,20.456s8.37,20.455,18.963,20.455
					C806.251,110.754,814.624,102.474,814.624,90.299z"/>
				<path fill="#FFFFFF" d="M870.67,68.696v0.72h-1.068c-1.862,0-3.377,1.292-3.462,3.034v24.236
					c0,10.059-6.835,16.223-17.95,16.223c-11.12,0-18.01-6.123-18.01-16.114V72.534c-0.037-1.784-1.57-3.118-3.463-3.118h-1.068
					v-0.72h13.666v0.72h-1.066c-1.892,0-3.427,1.334-3.471,3.118v23.349c0,9.344,5.074,15.071,13.345,15.071
					c9.082,0,14.659-5.423,14.682-14.271V72.487c-0.061-1.761-1.586-3.07-3.461-3.07h-1.068v-0.721H870.67z"/>
				<path fill="#FFFFFF" d="M893.946,68.697c10.042,0,16.465,4.673,16.444,12.313c-0.029,10.975-10.945,15.893-20.731,11.131V91.46
					c0.004,0,11.449,3.033,15.049-7.281c0.354-1.013,0.502-2.652,0.504-3.89c0.011-5.852-4.302-9.433-11.356-9.433h-6.969v36.464
					c0.064,2.144,1.82,3.862,4.176,3.862h0.993l0.013,0.72h-14.962l0.013-0.72h0.994c2.336,0,4.097-1.705,4.176-3.835V73.221
					c-0.043-2.162-1.816-3.804-4.177-3.804h-0.993l-0.014-0.721L893.946,68.697z"/>
			</g>
			<g>
				<g enable-background="new    ">
					<path fill="#FFFFFF" d="M269.581,156.332l-0.427,5.493c-1.845,3.016-4.976,5.214-9.836,5.214
						c-7.32-0.035-12.501-5.041-12.501-12.776c0-7.596,5.006-12.706,12.707-12.706c3.43,0,6.23,1.015,8.279,2.363l0.707,4.944
						h-0.292c-1.063-4.087-4.494-6.257-8.701-6.259c-6.154,0-10.074,4.655-10.074,11.621c0,7.035,3.99,11.621,9.875,11.764
						c4.97-0.015,9.175-2.49,9.971-9.658L269.581,156.332L269.581,156.332z"/>
					<path fill="#FFFFFF" d="M293.255,163.995c0.708,1.558,2.003,2.204,3.075,2.204h0.293v0.35h-7.882v-0.347h0.308
						c0.904,0,1.841-0.797,1.33-2.197l-2.239-5.962h-9.428l-2.345,5.982c-0.494,1.388,0.439,2.177,1.338,2.177h0.308v0.347h-7.046
						v-0.35h0.315c1.064,0,2.358-0.646,3.066-2.202l7.938-18.836c0,0,1.296-2.835,1.296-3.604h0.315L293.255,163.995z
						 M287.744,156.993l-4.219-11.234l-4.403,11.234H287.744z"/>
					<path fill="#FFFFFF" d="M307.779,142.045c4.242,0,6.842,2.5,6.842,6.578c0,3.389-2.581,6.674-5.947,6.674
						c0.751,0.347,1.827,1.506,2.505,2.464c0,0,3.018,4.309,4.373,5.789c1.408,1.538,2.704,2.63,4.761,2.646v0.352h-1.92
						c-3.257,0-5.007-1.755-6.107-3.069c-0.398-0.475-4.342-6.214-4.611-6.552c-0.915-1.149-1.936-2.362-3.215-2.362v-0.323
						c0,0,0.796,0.017,1.85-0.012c1.816-0.05,4.47-0.482,5.463-3.635c0.154-0.49,0.244-1.328,0.223-2.096
						c-0.086-3.166-1.736-5.193-4.342-5.336c-1.784-0.098-3.903-0.012-4.357-0.027v20.862c0.023,1.219,1.017,2.201,2.242,2.201
						h0.443l0.005,0.35h-7.647l0.006-0.35h0.442c1.22,0,2.21-0.973,2.241-2.185v-19.42c-0.023-1.22-1.017-2.201-2.242-2.201h-0.443
						l-0.006-0.349L307.779,142.045L307.779,142.045z"/>
					<path fill="#FFFFFF" d="M335.495,166.549h-14.511l0.006-0.351h0.443c1.225,0,2.219-0.981,2.242-2.201v-19.6
						c-0.12-1.126-1.071-2.005-2.23-2.005h-0.443l-0.006-0.348h10.229c1.508-0.015,3.523-0.363,4.172-0.637v1.025v0.584v2.811
						l-0.354-0.005V145.2c0-1.11-0.866-2.017-1.959-2.084h-7.136v10.822h5.916c0.938-0.018,1.693-0.782,1.693-1.725v-0.516
						l0.342-0.004v5.539l-0.342-0.004v-0.516c0-0.931-0.735-1.688-1.657-1.724h-5.952v10.488h5.02c3.709,0,5.133-1.919,6.214-4.584
						h0.35L335.495,166.549z"/>
					<path fill="#FFFFFF" d="M355.34,166.549h-14.511l0.006-0.351h0.443c1.225,0,2.219-0.981,2.242-2.201v-19.6
						c-0.12-1.126-1.071-2.005-2.23-2.005h-0.443l-0.006-0.348h10.229c1.508-0.015,3.523-0.363,4.172-0.637v1.025v0.584v2.811
						l-0.354-0.005V145.2c0-1.11-0.866-2.017-1.959-2.084h-7.136v10.822h5.916c0.938-0.018,1.693-0.782,1.693-1.725v-0.516
						l0.342-0.004v5.539l-0.342-0.004v-0.516c0-0.931-0.735-1.688-1.657-1.724h-5.952v10.488h5.02c3.709,0,5.133-1.919,6.214-4.584
						h0.35L355.34,166.549z"/>
					<path fill="#FFFFFF" d="M370.113,142.045c4.242,0,6.842,2.5,6.842,6.578c0,3.389-2.581,6.674-5.947,6.674
						c0.751,0.347,1.827,1.506,2.505,2.464c0,0,3.018,4.309,4.373,5.789c1.408,1.538,2.704,2.63,4.761,2.646v0.352h-1.92
						c-3.257,0-5.007-1.755-6.107-3.069c-0.398-0.475-4.342-6.214-4.611-6.552c-0.915-1.149-1.936-2.362-3.215-2.362v-0.323
						c0,0,0.796,0.017,1.85-0.012c1.816-0.05,4.47-0.482,5.463-3.635c0.155-0.49,0.244-1.328,0.223-2.096
						c-0.086-3.166-1.736-5.193-4.342-5.336c-1.784-0.098-3.903-0.012-4.357-0.027v20.862c0.023,1.219,1.017,2.201,2.242,2.201
						h0.442l0.006,0.35h-7.647l0.006-0.35h0.442c1.22,0,2.21-0.973,2.241-2.185v-19.42c-0.023-1.22-1.017-2.201-2.242-2.201h-0.443
						l-0.006-0.349L370.113,142.045L370.113,142.045z"/>
					<path fill="#FFFFFF" d="M409.089,142.045l-0.005,0.35h-0.646c-1.171,0-2.123,0.932-2.16,2.093v18.086
						c0,2.255,0.319,4.466,0.319,4.466h-0.318l-19.09-20.362v17.428c0.037,1.163,0.989,2.095,2.16,2.095h0.646l0.005,0.35h-7.21
						l0.005-0.35h0.646c1.181,0,2.138-0.945,2.161-2.12v-18.186c0-2.39-0.323-4.373-0.323-4.373h0.345l19.062,20.355v-17.359
						c-0.022-1.176-0.98-2.122-2.161-2.122h-0.646l-0.005-0.35h7.215V142.045z"/>
					<path fill="#FFFFFF" d="M426.914,166.549h-14.511l0.006-0.351h0.443c1.225,0,2.219-0.981,2.242-2.201v-19.6
						c-0.12-1.126-1.071-2.005-2.23-2.005h-0.443l-0.006-0.348h10.229c1.508-0.015,3.523-0.363,4.172-0.637v1.025v0.584v2.811
						l-0.354-0.005V145.2c0-1.11-0.866-2.017-1.959-2.084h-7.136v10.822h5.916c0.938-0.018,1.693-0.782,1.693-1.725v-0.516
						l0.342-0.004v5.539l-0.342-0.004v-0.516c0-0.931-0.735-1.688-1.657-1.724h-5.952v10.488h5.02c3.709,0,5.133-1.919,6.214-4.584
						h0.35L426.914,166.549z"/>
					<path fill="#FFFFFF" d="M447.235,142.011c1.513-0.009,3.56-0.361,4.215-0.637v4.4l-0.352-0.006v-0.623
						c0-1.123-0.886-2.037-1.996-2.085h-6.634v20.966c0.037,1.206,1.025,2.173,2.241,2.173h0.443l0.005,0.35h-7.663l0.006-0.35
						h0.443c1.206,0,2.188-0.951,2.24-2.145V143.06h-6.639c-1.11,0.048-1.996,0.962-1.996,2.085v0.623l-0.353,0.006v-4.4
						c0.656,0.275,2.703,0.628,4.216,0.637H447.235z"/>
				</g>
				<g enable-background="new    ">
					<path fill="#FFFFFF" d="M505.37,160.895l-2.041,5.654h-14.512l0.006-0.351h0.443c1.225,0,2.219-0.981,2.242-2.201v-19.399
						c-0.023-1.219-1.018-2.2-2.243-2.2h-0.442l-0.006-0.351h7.658l-0.006,0.351h-0.443c-1.225,0-2.219,0.981-2.242,2.2v20.88h5.021
						c3.709,0,5.133-1.919,6.213-4.584L505.37,160.895z"/>
					<path fill="#FFFFFF" d="M531.76,156.047c0,6.505-5.281,10.991-11.812,10.991c-6.529,0-11.812-4.486-11.812-10.991
						s5.282-10.991,11.812-10.991C526.479,145.056,531.76,149.542,531.76,156.047z M529.167,156.047c0-5.919-4.07-9.944-9.219-9.944
						s-9.218,4.025-9.218,9.944s4.069,9.943,9.218,9.943S529.167,161.966,529.167,156.047z"/>
					<path fill="#FFFFFF" d="M559.347,145.545l-0.005,0.351h-0.582c-1.037,0-1.885,0.774-1.945,1.751v14.927
						c0,2.255,0.332,4.466,0.332,4.466h-0.333l-18.205-17.274v14.606c0.02,1.013,0.884,1.828,1.949,1.828h0.582l0.004,0.351h-6.616
						l0.005-0.351h0.582c1.065,0,1.93-0.815,1.949-1.828v-14.977c0-2.39-0.335-4.373-0.335-4.373l0.376,0.018l18.164,17.12v-14.516
						c-0.062-0.976-0.909-1.749-1.945-1.749h-0.582l-0.006-0.35H559.347z"/>
					<path fill="#FFFFFF" d="M583.594,162.528c-1.63,2.061-5.04,4.509-9.97,4.509c-6.918-0.034-11.481-4.207-11.481-10.991
						c0-6.814,4.573-10.991,11.472-10.991c3.225,0,5.811,0.679,8.171,2.119l0.771,4.944h-0.307c-1.018-4.09-3.772-6.015-8.668-6.015
						c-5.347,0-8.908,3.779-8.908,9.944c0,6.138,3.58,9.94,8.951,9.94c2.914,0,5.5-0.898,7.692-3.033l0.058-4.651
						c0.012-0.882-0.605-1.377-1.629-1.375h-0.498v-0.351h6.42v0.351h-0.479c-1.023,0-1.6,0.492-1.596,1.388L583.594,162.528z"/>
					<path fill="#FFFFFF" d="M602.921,166.548l0.006-0.351h0.402c1.104,0,2.003-0.831,2.039-1.869v-7.619H592.45v7.617
						c0.034,1.039,0.933,1.871,2.038,1.871h0.402l0.006,0.351h-7.133l0.005-0.351h0.402c1.114,0,2.018-0.845,2.039-1.895V147.79
						c-0.021-1.051-0.925-1.897-2.04-1.897h-0.402l-0.006-0.35h7.133l-0.004,0.35h-0.403c-1.094,0-1.985,0.816-2.037,1.84v7.925
						h12.918v-7.867c-0.021-1.051-0.925-1.897-2.04-1.897h-0.401l-0.005-0.35h7.133l-0.006,0.35h-0.402
						c-1.092,0-1.982,0.813-2.038,1.835v16.605c0.04,1.036,0.938,1.864,2.04,1.864h0.402l0.005,0.35H602.921z"/>
					<path fill="#FFFFFF" d="M636.794,156.047c0,6.505-5.281,10.991-11.811,10.991c-6.531,0-11.812-4.486-11.812-10.991
						s5.281-10.991,11.812-10.991C631.513,145.056,636.794,149.542,636.794,156.047z M634.202,156.047
						c0-5.919-4.07-9.944-9.219-9.944c-5.15,0-9.219,4.025-9.219,9.944s4.068,9.943,9.219,9.943
						C630.132,165.991,634.202,161.966,634.202,156.047z"/>
					<path fill="#FFFFFF" d="M661.447,145.545v0.351h-0.52c-0.904,0-1.642,0.628-1.683,1.475v11.782c0,4.89-3.323,7.886-8.726,7.886
						c-5.406,0-8.756-2.977-8.756-7.833v-11.794c-0.018-0.867-0.763-1.516-1.683-1.516h-0.52v-0.351h6.644v0.351h-0.519
						c-0.919,0-1.666,0.648-1.688,1.516v11.351c0,4.542,2.468,7.326,6.487,7.326c4.415,0,7.127-2.636,7.137-6.938v-11.762
						c-0.029-0.856-0.771-1.493-1.682-1.493h-0.52v-0.35L661.447,145.545z"/>
					<path fill="#FFFFFF" d="M675.35,157.642c1.079,0.906,1.573,2.399,1.585,3.761c0.027,3.123-2.742,5.636-6.196,5.636
						c-2.074,0-4.763-0.506-6.038-1.648c-0.221-0.932-0.131-2.994,0.348-4.347h0.404c-0.311,3.153,1.813,5.033,4.901,4.945
						c2.894-0.082,4.665-1.591,4.665-3.865c0-1.091-0.373-1.981-1.275-2.771l-7.002-5.403c-1.304-1.113-1.655-2.568-1.673-3.783
						c-0.042-2.844,2.547-5.11,5.787-5.11c1.603,0,2.68,0.143,3.462,0.324h1.171l0.052,3.808h-0.4c0-1.939-1.298-3.095-4.045-3.095
						c-2.338,0-4.221,1.478-4.207,3.338c0.007,0.9,0.279,1.875,1.377,2.757L675.35,157.642z"/>
					<path fill="#FFFFFF" d="M694.978,166.55h-14.221l0.006-0.35h0.481c1.129,0,1.978-0.825,2.021-1.858V147.73
						c0-1.043-0.885-1.833-2.021-1.833h-0.48l-0.007-0.351h10.226c1.408-0.01,3.301-0.312,3.91-0.549v3.962l-0.381-0.005v-0.538
						c0-0.981-0.689-1.778-1.754-1.799h-7.259v8.905h5.98c0.97-0.021,1.419-0.678,1.419-1.486v-0.445l0.381-0.004v4.917
						l-0.381-0.004v-0.444c0-0.786-0.424-1.429-1.338-1.483h-6.062v8.905h5.474c3.363-0.045,4.561-1.686,5.555-3.951h0.379
						L694.978,166.55z"/>
				</g>
				<g enable-background="new    ">
					<path fill="#FFFFFF" d="M766.918,166.549l0.005-0.351h0.443c1.216,0,2.204-0.967,2.241-2.174v-9.064h-14.324v9.037
						c0.022,1.219,1.017,2.201,2.242,2.201h0.442l0.006,0.35h-7.658l0.005-0.35h0.443c1.225,0,2.219-0.982,2.242-2.201V144.58
						c-0.03-1.213-1.021-2.187-2.242-2.187h-0.442l-0.006-0.349h7.657l-0.005,0.349h-0.443c-1.218,0-2.207,0.971-2.241,2.18v9.337
						h14.324v-9.359c-0.046-1.199-1.03-2.157-2.241-2.157h-0.442l-0.006-0.35h7.657l-0.006,0.35h-0.442
						c-1.226,0-2.22,0.981-2.241,2.2v19.404c0.022,1.219,1.017,2.201,2.241,2.201h0.443l0.005,0.35L766.918,166.549z"/>
					<path fill="#FFFFFF" d="M778.07,166.548l0.007-0.35h0.467c1.302,0,2.353-0.846,2.38-1.896v-16.511
						c-0.027-1.052-1.078-1.897-2.382-1.897h-0.467l-0.007-0.351h7.931v0.351h-0.472c-1.273,0-2.312,0.812-2.374,1.835v16.601
						c0.041,1.037,1.089,1.868,2.376,1.868h0.467l0.006,0.35H778.07z"/>
					<path fill="#FFFFFF" d="M798.603,145.546c4.413,0,7.116,2.133,7.116,5.669c0,2.969-2.301,5.449-5.442,5.764
						c0.764,0.347,1.946,1.681,2.696,2.743c-0.005,0,1.615,2.194,3.063,3.817c1.424,1.597,2.404,2.643,4.346,2.659v0.351h-1.103
						c-3.873,0-5.4-1.761-6.499-3.08c-0.396-0.477-3.156-4.452-3.43-4.796c-0.948-1.188-2.162-2.356-3.548-2.356v-0.324
						c-0.001,0,0.863,0.015,2.008-0.015c1.937-0.049,4.142-0.067,5.146-3.01c0.167-0.491,0.267-1.229,0.245-1.996
						c-0.074-2.622-1.84-4.163-4.656-4.306c-1.967-0.099-3.691-0.012-4.024-0.03v17.666c0.021,1.051,0.862,1.897,1.988,1.897h0.474
						l0.006,0.35h-7.158l0.006-0.35h0.473c1.107,0,1.943-0.821,1.988-1.851v-16.631c-0.035-1.038-0.875-1.822-1.988-1.822h-0.473
						l-0.006-0.35h8.772V145.546z"/>
					<path fill="#FFFFFF" d="M825.997,166.55h-14.221l0.007-0.35h0.48c1.129,0,1.979-0.825,2.021-1.858V147.73
						c0-1.043-0.884-1.833-2.021-1.833h-0.48l-0.007-0.351h10.226c1.408-0.01,3.302-0.312,3.911-0.549v3.962l-0.381-0.005v-0.538
						c0-0.981-0.689-1.778-1.755-1.799h-7.259v8.905h5.98c0.971-0.021,1.419-0.678,1.419-1.486v-0.445l0.381-0.004v4.917
						l-0.381-0.004v-0.444c0-0.786-0.423-1.429-1.337-1.483h-6.062v8.905h5.474c3.363-0.045,4.561-1.686,5.555-3.951h0.38
						L825.997,166.55z"/>
					<path fill="#FFFFFF" d="M840.193,142.046c4.476,0,7.219,2.569,7.219,6.761c0,5.335-5.791,8.176-10.184,5.861l-0.004-0.331
						c0,0,5.759,1.242,7.338-3.771c0.155-0.492,0.245-1.337,0.225-2.111c-0.088-3.215-1.742-5.358-4.72-5.358h-4.035v20.902
						c0.022,1.22,1.017,2.201,2.242,2.201h0.442l0.006,0.35h-7.662l0.006-0.35h0.442c1.226,0,2.22-0.981,2.243-2.201v-19.588
						c-0.113-1.133-1.068-2.017-2.23-2.017h-0.443l-0.006-0.349L840.193,142.046z"/>
					<path fill="#FFFFFF" d="M859.502,145.546c4.413,0,7.117,2.133,7.117,5.669c0,2.969-2.302,5.449-5.443,5.764
						c0.764,0.347,1.947,1.681,2.697,2.743c-0.006,0,1.615,2.194,3.062,3.817c1.425,1.597,2.405,2.643,4.346,2.659v0.351h-1.103
						c-3.872,0-5.4-1.761-6.498-3.08c-0.396-0.477-3.156-4.452-3.431-4.796c-0.947-1.188-2.162-2.356-3.547-2.356v-0.324
						c-0.001,0,0.862,0.015,2.008-0.015c1.936-0.049,4.142-0.067,5.146-3.01c0.167-0.491,0.266-1.229,0.244-1.996
						c-0.074-2.622-1.839-4.163-4.655-4.306c-1.968-0.099-3.692-0.012-4.025-0.03v17.666c0.021,1.051,0.862,1.897,1.988,1.897h0.474
						l0.007,0.35h-7.158l0.006-0.35h0.473c1.106,0,1.942-0.821,1.988-1.851v-16.631c-0.036-1.038-0.875-1.822-1.989-1.822h-0.472
						l-0.007-0.35h8.772V145.546z"/>
					<path fill="#FFFFFF" d="M894.898,156.047c0,6.505-5.281,10.991-11.811,10.991c-6.53,0-11.812-4.486-11.812-10.991
						s5.282-10.991,11.812-10.991C889.617,145.056,894.898,149.542,894.898,156.047z M892.306,156.047
						c0-5.919-4.07-9.944-9.219-9.944s-9.219,4.025-9.219,9.944s4.069,9.943,9.219,9.943
						C888.236,165.991,892.306,161.966,892.306,156.047z"/>
				</g>
				<g enable-background="new    ">
					<path fill="#FFFFFF" d="M472.218,142.045h1.575v30.804h-1.575V142.045z"/>
				</g>
				<g enable-background="new    ">
					<path fill="#FFFFFF" d="M734.217,142.045h1.575v30.804h-1.575V142.045z"/>
				</g>
			</g>
		</g>
	</g>
</g>
</svg>
