<?xml version="1.0" encoding="UTF-8" standalone="no"?>
<svg width="407px" height="330px" viewBox="0 0 407 330" version="1.1" xmlns="http://www.w3.org/2000/svg" xmlns:xlink="http://www.w3.org/1999/xlink">
    <!-- Generator: Sketch 41.2 (35397) - http://www.bohemiancoding.com/sketch -->
    <title>chat bubble</title>
    <desc>Created with Sketch.</desc>
    <defs></defs>
    <g id="Page-2---Landing-Page" stroke="none" stroke-width="1" fill="none" fill-rule="evenodd" opacity="0.6">
        <g id="Artboard-2" transform="translate(-101.000000, -372.000000)">
            <g id="Group-2" transform="translate(101.000000, 169.000000)">
                <g id="chat-bubble" transform="translate(0.000000, 203.000000)">
                    <g id="Objects">
                        <g id="Group">
                            <path d="M120.380462,271.809 C134.935448,262.196793 144.127281,248.136933 144.127281,232.462524 C144.127281,203.488532 112.759199,180 74.0630853,180 C35.3680825,180 4,203.488532 4,232.462524 C4,261.435959 35.3680825,284.924491 74.0630853,284.924491 C82.5384988,284.924491 90.6623668,283.797144 98.1819985,281.732102 C103.269135,290.378249 115.456603,305.102727 139.524423,305.143884 C139.525533,305.143328 123.535486,291.203042 120.380462,271.809 Z" id="Shape" fill="#104A57"></path>
                            <path d="M240.330703,161.381426 C240.330703,136.31839 218.766465,116 192.165074,116 C165.564793,116 144,136.31839 144,161.381426 C144,186.445019 165.564793,206.762852 192.165074,206.762852 C193.001452,206.762852 193.832832,206.742831 194.658659,206.702787 C196.745162,212.015278 200.578286,217.630324 207.636966,220.281564 C207.636966,220.281564 205.885902,212.367887 206.718393,204.649424 C226.205013,198.836384 240.330703,181.665334 240.330703,161.381426 Z" id="Shape" fill="#FFCD55"></path>
                            <path d="M276.330147,265.380314 C276.330147,240.317277 254.76591,220 228.164518,220 C201.563682,220 180,240.317277 180,265.380314 C180,287.331605 196.541524,305.641682 218.519508,309.850741 C218.923257,316.476339 218.034675,325.192007 211.663536,329.779815 C211.663536,329.779815 226.964376,327.421118 235.236526,310.271758 C258.484073,307.04878 276.330147,288.180314 276.330147,265.380314 Z" id="Shape" fill="#424242"></path>
                            <path d="M406.126171,191.083614 C406.126171,156.243746 374.758088,128 336.061975,128 C297.366972,128 266,156.243746 266,191.083614 C266,220.189973 287.899122,244.677934 317.667756,251.954802 C316.756403,258.907426 313.544176,267.927316 303.98247,274.767037 C303.98247,274.767037 326.740186,273.823781 343.832076,253.771238 C378.868894,250.290755 406.126171,223.558667 406.126171,191.083614 Z" id="Shape" fill="#104A57"></path>
                            <path d="M318.863775,10.7970873 L249.16723,0.374548175 C230.764681,-2.37735811 213.618365,10.3310207 210.870423,28.7601167 L205.373983,65.6194208 C202.626041,84.0485167 215.317224,101.219567 233.718663,103.971473 L281.502201,111.117642 C281.282832,120.302157 279.524549,137.104469 269.864544,141.710631 C269.864544,141.710631 291.410455,133.067821 304.748637,114.559193 C322.638585,116.51912 339.02905,103.990382 341.710904,86.0084435 L347.206788,49.148027 C349.955286,30.7194873 337.265213,13.5495498 318.863775,10.7970873 Z" id="Shape" fill="#FA6A31"></path>
                            <path d="M111.377741,30 L36.0253669,30 C16.128888,30 0,46.1521549 0,66.0773356 L0,105.92881 C0,125.85399 16.128888,142.006145 36.0253669,142.006145 L97.0471225,142.006145 C97.8168574,150.210141 96.9588196,160.602647 89.841827,167.754377 C89.841827,167.754377 108.505953,162.521417 119.414972,141.092922 C135.440007,137.43391 147.403108,123.085955 147.403108,105.92881 L147.403108,66.0773356 C147.403108,46.1521549 131.273665,30 111.377741,30 Z" id="Shape" fill="#91BEAE"></path>
                        </g>
                    </g>
                </g>
            </g>
        </g>
    </g>
</svg>