<?xml version="1.0" encoding="UTF-8" standalone="no"?>
<svg width="204px" height="71px" viewBox="0 0 204 71" version="1.1" xmlns="http://www.w3.org/2000/svg" xmlns:xlink="http://www.w3.org/1999/xlink">
    <!-- Generator: Sketch 41.2 (35397) - http://www.bohemiancoding.com/sketch -->
    <title>Contributor desktop</title>
    <desc>Created with Sketch.</desc>
    <defs></defs>
    <g id="Page-6---Form" stroke="none" stroke-width="1" fill="none" fill-rule="evenodd">
        <g id="Contact-forms-Desktop-HD-1920--v2" transform="translate(-586.000000, -1372.000000)">
            <g id="Group-4" transform="translate(509.000000, 1222.000000)">
                <g id="Contributor-desktop" transform="translate(78.000000, 150.000000)">
                    <polyline id="Path-2-Copy" stroke="#FFFFFF" points="64.9882812 6.31445312 0 6 3.91390258e-15 70 201.371442 70 202 6 134.845703 6"></polyline>
                    <path d="M90.2357667,13 C92.9340089,13 94.5336182,11.6728516 94.5336182,9.44042969 C94.5336182,7.75292969 93.4261964,6.54003906 91.7035401,6.3203125 L91.7035401,6.25 C92.9252198,6.03027344 93.8920167,4.79980469 93.8920167,3.48144531 C93.8920167,1.58300781 92.4242432,0.317382812 90.2533448,0.317382812 L85.2875245,0.317382812 L85.2875245,13 L90.2357667,13 Z M86.8695557,1.71484375 L89.8929932,1.71484375 C91.4310792,1.71484375 92.2924073,2.40917969 92.2924073,3.66601562 C92.2924073,5.03710938 91.2728761,5.78417969 89.4008057,5.78417969 L86.8695557,5.78417969 L86.8695557,1.71484375 Z M86.8695557,11.6025391 L86.8695557,7.14648438 L89.8490479,7.14648438 C91.8705323,7.14648438 92.9076417,7.89355469 92.9076417,9.36132812 C92.9076417,10.8291016 91.9056886,11.6025391 89.998462,11.6025391 L86.8695557,11.6025391 Z M100.082239,4.78222656 C101.576379,4.78222656 102.595911,5.85449219 102.631067,7.46289062 L97.4191529,7.46289062 C97.5246216,5.86328125 98.5968872,4.78222656 100.082239,4.78222656 Z M102.595911,10.2929688 C102.32345,11.1806641 101.400598,11.7431641 100.214075,11.7431641 C98.5265747,11.7431641 97.4191529,10.5742188 97.4191529,8.77246094 L97.4191529,8.68457031 L104.221887,8.68457031 L104.221887,8.08691406 C104.221887,5.22167969 102.639856,3.4375 100.108606,3.4375 C97.5246216,3.4375 95.8371216,5.36230469 95.8371216,8.29785156 C95.8371216,11.2333984 97.5158326,13.0878906 100.178918,13.0878906 C102.200403,13.0878906 103.843958,11.9189453 104.107629,10.2929688 L102.595911,10.2929688 Z M113.570105,11.7607422 C112.374792,11.7607422 111.610144,11.1894531 111.610144,10.3105469 C111.610144,9.39648438 112.348425,8.87792969 113.772253,8.79003906 L116.250769,8.63183594 L116.250769,9.39648438 C116.250769,10.7587891 115.11698,11.7607422 113.570105,11.7607422 Z M113.24491,13.0878906 C114.572058,13.0878906 115.758582,12.4111328 116.294714,11.3564453 L116.329871,11.3564453 L116.329871,13 L117.780066,13 L117.780066,6.49609375 C117.780066,4.6328125 116.33866,3.4375 114.097449,3.4375 C112.111121,3.4375 110.555457,4.65917969 110.511511,6.25878906 L111.979285,6.25878906 C112.163855,5.36230469 112.981238,4.79980469 114.079871,4.79980469 C115.477332,4.79980469 116.250769,5.45019531 116.250769,6.62792969 L116.250769,7.41894531 L113.596472,7.57714844 C111.293738,7.71777344 110.045691,8.67578125 110.045691,10.3017578 C110.045691,11.9804688 111.320105,13.0878906 113.24491,13.0878906 Z" id="Be-a" fill="#FFFFFF"></path>
                    <path d="M22.2828546,51.402832 C27.9869561,51.402832 31.9669366,48.1157227 32.5147882,42.9272461 L27.7774835,42.9272461 C27.2618585,45.6826172 25.1832452,47.3745117 22.2989678,47.3745117 C18.5767999,47.3745117 16.2403741,44.3129883 16.2403741,39.3500977 C16.2403741,34.4516602 18.6090264,31.3740234 22.2828546,31.3740234 C25.1187921,31.3740234 27.3101983,33.2431641 27.7613702,36.0952148 L32.4986749,36.0952148 C32.1280694,30.890625 27.8741632,27.3457031 22.2828546,27.3457031 C15.547503,27.3457031 11.2774835,31.8735352 11.2774835,39.3662109 C11.2774835,46.875 15.5152764,51.402832 22.2828546,51.402832 Z M43.5734897,51.3061523 C48.9553256,51.3061523 52.3230014,47.8740234 52.3230014,42.121582 C52.3230014,36.4335938 48.923099,32.953125 43.5734897,32.953125 C38.2399936,32.953125 34.8239779,36.449707 34.8239779,42.121582 C34.8239779,47.8579102 38.1916537,51.3061523 43.5734897,51.3061523 Z M43.5734897,47.6806641 C41.0920444,47.6806641 39.5935092,45.6503906 39.5935092,42.121582 C39.5935092,38.6411133 41.0920444,36.5625 43.5734897,36.5625 C46.0388217,36.5625 47.5373569,38.625 47.5373569,42.121582 C47.5373569,45.6503906 46.054935,47.6806641 43.5734897,47.6806641 Z M55.1478162,51 L59.8528943,51 L59.8528943,40.8808594 C59.8528943,38.5283203 61.2064099,36.9169922 63.4622693,36.9169922 C65.6859021,36.9169922 66.7816052,38.2543945 66.7816052,40.6069336 L66.7816052,51 L71.4866834,51 L71.4866834,39.6240234 C71.4866834,35.4829102 69.2630506,33.0014648 65.3314099,33.0014648 C62.6082654,33.0014648 60.8035779,34.1938477 59.7884412,36.4335938 L59.6917615,36.4335938 L59.6917615,33.2592773 L55.1478162,33.2592773 L55.1478162,51 Z M76.1645255,29.3115234 L76.1645255,33.2592773 L73.7636466,33.2592773 L73.7636466,36.8203125 L76.1645255,36.8203125 L76.1645255,46.2143555 C76.1645255,49.6787109 77.7758536,51.0644531 81.8847404,51.0644531 C82.8354239,51.0644531 83.6733146,50.9677734 84.156713,50.8710938 L84.156713,47.390625 C83.8666739,47.4389648 83.3993888,47.4711914 82.9804435,47.4711914 C81.5463614,47.4711914 80.8696036,46.8105469 80.8696036,45.440918 L80.8696036,36.8203125 L84.156713,36.8203125 L84.156713,33.2592773 L80.8696036,33.2592773 L80.8696036,29.3115234 L76.1645255,29.3115234 Z M87.1587739,51 L91.863852,51 L91.863852,41.0742188 C91.863852,38.5927734 93.2657075,37.1103516 95.6504731,37.1103516 C96.3433442,37.1103516 96.9878755,37.2231445 97.3907075,37.3842773 L97.3907075,33.2270508 C97.0523286,33.1142578 96.5689301,33.0498047 96.0210786,33.0498047 C93.926352,33.0498047 92.3955903,34.2421875 91.7993989,36.4335938 L91.7027192,36.4335938 L91.7027192,33.2592773 L87.1587739,33.2592773 L87.1587739,51 Z M99.7804637,51 L104.485542,51 L104.485542,33.2592773 L99.7804637,33.2592773 L99.7804637,51 Z M102.133003,31.3256836 C103.534858,31.3256836 104.678901,30.262207 104.678901,28.8603516 C104.678901,27.4584961 103.534858,26.4111328 102.133003,26.4111328 C100.747261,26.4111328 99.6032176,27.4584961 99.6032176,28.8603516 C99.6032176,30.262207 100.747261,31.3256836 102.133003,31.3256836 Z M118.492974,51.2094727 C122.956353,51.2094727 125.711724,47.7612305 125.711724,42.121582 C125.711724,36.4819336 122.956353,33.0498047 118.476861,33.0498047 C115.947075,33.0498047 113.981255,34.2421875 112.998345,36.2885742 L112.901665,36.2885742 L112.901665,26.6367188 L108.196587,26.6367188 L108.196587,51 L112.821099,51 L112.821099,47.9707031 L112.917778,47.9707031 C113.900689,50.0170898 115.898736,51.2094727 118.492974,51.2094727 Z M116.897759,36.8525391 C119.314751,36.8525391 120.893853,38.9150391 120.893853,42.121582 C120.893853,45.3442383 119.330864,47.4067383 116.897759,47.4067383 C114.480767,47.4067383 112.885552,45.3120117 112.869439,42.1376953 C112.885552,38.9633789 114.480767,36.8525391 116.897759,36.8525391 Z M144.810953,33.2592773 L140.105875,33.2592773 L140.105875,43.3623047 C140.105875,45.7631836 138.736246,47.3422852 136.544839,47.3422852 C134.369546,47.3422852 133.177164,46.0532227 133.177164,43.6523438 L133.177164,33.2592773 L128.472085,33.2592773 L128.472085,44.6352539 C128.472085,48.7602539 131.001871,51.2578125 134.836832,51.2578125 C137.52775,51.2578125 139.267984,50.0170898 140.170328,47.793457 L140.267007,47.793457 L140.267007,51 L144.810953,51 L144.810953,33.2592773 Z M149.569361,29.3115234 L149.569361,33.2592773 L147.168482,33.2592773 L147.168482,36.8203125 L149.569361,36.8203125 L149.569361,46.2143555 C149.569361,49.6787109 151.180689,51.0644531 155.289576,51.0644531 C156.24026,51.0644531 157.07815,50.9677734 157.561549,50.8710938 L157.561549,47.390625 C157.27151,47.4389648 156.804224,47.4711914 156.385279,47.4711914 C154.951197,47.4711914 154.274439,46.8105469 154.274439,45.440918 L154.274439,36.8203125 L157.561549,36.8203125 L157.561549,33.2592773 L154.274439,33.2592773 L154.274439,29.3115234 L149.569361,29.3115234 Z M168.410778,51.3061523 C173.792614,51.3061523 177.160289,47.8740234 177.160289,42.121582 C177.160289,36.4335938 173.760387,32.953125 168.410778,32.953125 C163.077281,32.953125 159.661266,36.449707 159.661266,42.121582 C159.661266,47.8579102 163.028942,51.3061523 168.410778,51.3061523 Z M168.410778,47.6806641 C165.929332,47.6806641 164.430797,45.6503906 164.430797,42.121582 C164.430797,38.6411133 165.929332,36.5625 168.410778,36.5625 C170.87611,36.5625 172.374645,38.625 172.374645,42.121582 C172.374645,45.6503906 170.892223,47.6806641 168.410778,47.6806641 Z M179.985104,51 L184.690182,51 L184.690182,41.0742188 C184.690182,38.5927734 186.092038,37.1103516 188.476803,37.1103516 C189.169674,37.1103516 189.814206,37.2231445 190.217038,37.3842773 L190.217038,33.2270508 C189.878659,33.1142578 189.39526,33.0498047 188.847409,33.0498047 C186.752682,33.0498047 185.22192,34.2421875 184.625729,36.4335938 L184.529049,36.4335938 L184.529049,33.2592773 L179.985104,33.2592773 L179.985104,51 Z" id="Contributor" fill="#FFFFFF"></path>
                </g>
            </g>
        </g>
    </g>
</svg>