<?xml version="1.0" encoding="UTF-8" standalone="no"?>
<svg width="10px" height="18px" viewBox="0 0 10 18" version="1.1" xmlns="http://www.w3.org/2000/svg" xmlns:xlink="http://www.w3.org/1999/xlink">
    <!-- Generator: sketchtool 41.2 (35397) - http://www.bohemiancoding.com/sketch -->
    <title>4BF900AA-DBBF-4234-8562-C77D345B7D9B</title>
    <desc>Created with sketchtool.</desc>
    <defs></defs>
    <g id="Page-2---Landing-Page" stroke="none" stroke-width="1" fill="none" fill-rule="evenodd">
        <g id="Desktop-HD-1366---v2" transform="translate(-597.000000, -8259.000000)" fill="#FFFFFF">
            <g id="Group-12" transform="translate(-277.000000, 30.000000)">
                <g id="Footer" transform="translate(0.000000, 8170.000000)">
                    <g id="Group-Copy-7">
                        <g transform="translate(874.625000, 59.788235)">
                            <path d="M8.06214769,3.02121402 C7.59612759,2.88491865 7.06020448,2.79405507 6.57088338,2.79405507 C5.96505725,2.79405507 4.66020098,3.18022528 4.66020098,3.92984981 L4.66020098,5.72440551 L7.75923462,5.72440551 L7.75923462,8.74561952 L4.66020098,8.74561952 L4.66020098,17.0823529 L1.53786632,17.0823529 L1.53786632,8.74561952 L0,8.74561952 L0,5.72440551 L1.53786632,5.72440551 L1.53786632,4.20244055 C1.53786632,1.90813517 2.60971255,0 5.19612409,0 C6.08156227,0 7.66603061,0.0454317897 8.52816779,0.340738423 L8.06214769,3.02121402 Z" id="Facebook"></path>
                        </g>
                    </g>
                </g>
            </g>
        </g>
    </g>
</svg>