<?xml version="1.0" encoding="UTF-8" standalone="no"?>
<svg width="344px" height="149px" viewBox="0 0 344 149" version="1.1" xmlns="http://www.w3.org/2000/svg" xmlns:xlink="http://www.w3.org/1999/xlink">
    <!-- Generator: sketchtool 41.2 (35397) - http://www.bohemiancoding.com/sketch -->
    <title>C6B221C4-957E-46BD-A606-1948A5964989</title>
    <desc>Created with sketchtool.</desc>
    <defs></defs>
    <g id="Page-2---Landing-Page" stroke="none" stroke-width="1" fill="none" fill-rule="evenodd">
        <g id="Desktop-HD-1366---v2" transform="translate(-259.000000, -100.000000)">
            <g id="Logo" transform="translate(259.000000, 100.000000)">
                <g id="FactorDailyLogo-04">
                    <g id="Layer_1">
                        <g id="Group">
                            <g>
                                <polygon id="Shape" fill="#E21F26" points="64.5765952 15.534517 80.5579883 0.70952381 64.5765952 0.70952381"></polygon>
                                <polygon id="Shape" fill="#A8D7D8" points="0.654055371 15.534517 16.6334267 15.534517 0.654055371 0.70952381"></polygon>
                                <polygon id="Shape" fill="#ED7D23" points="0.654055371 0.70952381 16.6334267 15.534517 32.6148198 0.70952381"></polygon>
                                <polygon id="Shape" fill="#5ABDBE" points="32.6148198 0.70952381 48.596213 15.534517 64.5765952 15.534517 48.596213 0.70952381"></polygon>
                                <polygon id="Shape" fill="#E21F26" points="32.6148198 0.70952381 32.6148198 15.534517 48.596213 15.534517"></polygon>
                                <polygon id="Shape" fill="#F8BB16" points="80.5579883 0.70952381 80.5579883 15.534517 96.5393815 15.534517"></polygon>
                                <polygon id="Shape" fill="#E21F26" points="0.654055371 60.0206463 0.654055371 45.1915986 16.6334267 45.1915986"></polygon>
                                <polygon id="Shape" fill="#5ABDBE" points="16.6334267 60.0206463 32.6148198 60.0206463 32.6148198 45.1915986"></polygon>
                                <polygon id="Shape" fill="#ED7D23" points="16.6334267 30.3645782 16.6334267 45.1915986 32.6148198 30.3645782"></polygon>
                                <polygon id="Shape" fill="#5ABDBE" points="64.4643848 74.8486803 80.4457779 74.8486803 64.4643848 60.0206463"></polygon>
                                <polygon id="Shape" fill="#A8D7D8" points="48.4829916 60.0206463 64.4643848 60.0206463 64.4643848 74.8486803"></polygon>
                                <polygon id="Shape" fill="#E21F26" points="32.6148198 74.8486803 16.6334267 60.0206463 16.6334267 74.8486803"></polygon>
                                <polygon id="Shape" fill="#F8BB16" points="16.6334267 60.0206463 32.6148198 74.8486803 32.6148198 60.0206463"></polygon>
                                <rect id="Rectangle-path" fill="#F8BB16" x="0.654055371" y="60.0206463" width="15.9793713" height="14.828034"></rect>
                                <polygon id="Shape" fill="#E21F26" points="48.4829916 74.8486803 32.5015985 74.8486803 48.4829916 60.0206463"></polygon>
                                <polygon id="Shape" fill="#E21F26" points="32.6148198 104.503735 16.6334267 104.503735 32.6148198 89.6767143"></polygon>
                                <polygon id="Shape" fill="#5ABDBE" points="16.6334267 104.503735 16.6334267 119.333796 0.654055371 119.333796"></polygon>
                                <polygon id="Shape" fill="#ED7D23" points="32.6148198 104.503735 32.6148198 119.333796 16.6334267 119.333796"></polygon>
                                <polygon id="Shape" fill="#A8D7D8" points="16.6334267 104.503735 16.6334267 119.333796 32.6148198 104.503735"></polygon>
                                <polygon id="Shape" fill="#E21F26" points="0.654055371 89.6767143 0.654055371 104.506776 16.6354485 89.6767143"></polygon>
                                <rect id="Rectangle-path" fill="#ED7D23" x="48.4829916" y="74.8486803" width="15.9813931" height="14.828034"></rect>
                                <polygon id="Shape" fill="#F8BB16" points="64.4643848 89.6767143 64.4643848 74.8486803 80.4457779 74.8486803"></polygon>
                                <polygon id="Shape" fill="#ED7D23" points="32.6148198 89.6767143 16.6334267 74.8486803 32.6148198 74.8486803"></polygon>
                                <polygon id="Shape" fill="#5ABDBE" points="32.6148198 89.6767143 16.6334267 74.8486803 0.654055371 89.6767143"></polygon>
                                <polygon id="Shape" fill="#5ABDBE" points="48.4829916 89.6767143 48.4829916 74.8486803 32.5015985 89.6767143"></polygon>
                                <polygon id="Shape" fill="#ED7D23" points="0.654055371 119.333796 0.654055371 134.160816 16.6334267 134.160816"></polygon>
                                <polygon id="Shape" fill="#F8BB16" points="0.654055371 119.333796 16.6334267 134.160816 32.6148198 134.160816 32.6148198 119.333796"></polygon>
                                <polygon id="Shape" fill="#E21F26" points="16.6334267 148.98885 32.6148198 134.160816 32.6148198 148.98885"></polygon>
                                <polygon id="Shape" fill="#F8BB16" points="0.654055371 104.503735 16.6334267 89.6767143 16.6334267 104.503735"></polygon>
                                <rect id="Rectangle-path" fill="#5ABDBE" x="0.654055371" y="134.160816" width="15.9793713" height="14.828034"></rect>
                                <rect id="Rectangle-path" fill="#F8BB16" x="32.6148198" y="15.534517" width="15.9813931" height="14.8300612"></rect>
                                <rect id="Rectangle-path" fill="#ED7D23" x="64.5765952" y="15.534517" width="15.9813931" height="14.8300612"></rect>
                                <polygon id="Shape" fill="#5ABDBE" points="80.5579883 15.534517 96.5393815 15.534517 80.5579883 30.3645782"></polygon>
                                <polygon id="Shape" fill="#A8D7D8" points="48.596213 30.5439864 48.596213 15.534517 64.5765952 15.534517"></polygon>
                                <rect id="Rectangle-path" fill="#E21F26" x="0.654055371" y="15.534517" width="15.9793713" height="14.8300612"></rect>
                                <polygon id="Shape" fill="#E21F26" points="16.6334267 30.3645782 32.6148198 15.534517 32.6148198 30.3645782"></polygon>
                                <polygon id="Shape" fill="#F8BB16" points="16.6334267 30.3645782 16.6334267 15.534517 32.6148198 15.534517"></polygon>
                            </g>
                            <g transform="translate(119.286760, 46.625850)" id="Shape" fill="#414042">
                                <path d="M0.970468557,1.24977551 L14.5388321,1.24977551 C27.105389,1.24977551 34.3909795,8.50719048 34.3909795,18.6858163 L34.3909795,18.7861633 C34.3909795,28.9678299 27.0042985,36.5262857 14.3406947,36.5262857 L0.970468557,36.5262857 L0.970468557,1.24977551 Z M14.6904678,27.8569184 C20.5223773,27.8569184 24.3911097,24.6336531 24.3911097,18.9361769 L24.3911097,18.8358299 C24.3911097,13.1930884 20.5223773,9.91914286 14.6904678,9.91914286 L10.7206448,9.91914286 L10.7206448,27.857932 L14.6904678,27.857932 L14.6904678,27.8569184 Z"></path>
                                <polygon points="83.098392 1.24977551 92.8960808 1.24977551 92.8960808 36.5272993 83.098392 36.5272993"></polygon>
                                <polygon points="102.342986 1.24977551 112.095184 1.24977551 112.095184 27.9592925 129.132972 27.9592925 129.132972 36.5272993 102.342986 36.5272993"></polygon>
                                <polygon points="139.938533 23.3230612 126.570329 1.2487619 137.677139 1.2487619 144.915217 14.1012789 152.204851 1.2487619 163.10847 1.2487619 149.740266 23.1710204 149.740266 36.5272993 139.938533 36.5272993"></polygon>
                                <polygon points="61.4852485 0.998401361 52.0858562 0.998401361 37.1082914 36.5262857 47.3618983 36.5262857 52.7924786 22.6175918 52.7399115 22.6175918 56.7097345 12.5889796 60.6280013 22.6175918 60.6037395 22.6175918 66.0090472 36.5262857 76.4607914 36.5262857"></polygon>
                            </g>
                            <g transform="translate(119.286760, 0.000000)" id="Shape" fill="#414042">
                                <polygon points="0.970468557 0.718646259 29.1140567 0.718646259 29.1140567 9.28361224 10.7196339 9.28361224 10.7196339 15.2790884 27.3550824 15.2790884 27.3550824 23.3950272 10.7196339 23.3950272 10.7196339 35.9931293 0.969457652 35.9931293 0.969457652 0.718646259"></polygon>
                                <path d="M72.039094,18.4557279 L72.039094,18.3563946 C72.039094,8.07640816 79.9292056,0.0121632653 90.5841416,0.0121632653 C97.7726853,0.0121632653 102.394542,3.0367619 105.511161,7.37093878 L98.1740144,13.0643605 C96.1633249,10.5445374 93.8523967,8.93189116 90.4850729,8.93189116 C85.5579232,8.93189116 82.0915308,13.1140272 82.0915308,18.255034 L82.0915308,18.355381 C82.0915308,23.6464014 85.5579232,27.7798844 90.4850729,27.7798844 C94.1526354,27.7798844 96.3129388,26.0658776 98.4247188,23.4953741 L105.761865,28.7367279 C102.446098,33.3222789 97.9708226,36.697585 90.1828124,36.697585 C80.1303756,36.697585 72.039094,28.9870884 72.039094,18.4557279 Z"></path>
                                <polygon points="121.542089 9.28361224 110.988243 9.28361224 110.988243 0.718646259 141.847121 0.718646259 141.847121 9.28361224 131.293276 9.28361224 131.293276 35.9931293 121.541078 35.9931293 121.541078 9.28361224"></polygon>
                                <path d="M146.422476,18.4557279 L146.422476,18.3563946 C146.422476,8.22743537 154.565314,0.0121632653 165.419398,0.0121632653 C176.277526,0.0121632653 184.316241,8.12607483 184.316241,18.2560476 L184.316241,18.3563946 C184.316241,28.4853537 176.175425,36.697585 165.319319,36.697585 C154.464223,36.697585 146.422476,28.5857007 146.422476,18.4557279 Z M174.365905,18.4557279 L174.365905,18.3563946 C174.365905,13.2670816 170.698343,8.83154422 165.32033,8.83154422 C159.993872,8.83154422 156.423357,13.1647075 156.423357,18.2560476 L156.423357,18.3563946 C156.423357,23.4457075 160.092941,27.8792177 165.419398,27.8792177 C170.797411,27.8782041 174.365905,23.5460544 174.365905,18.4557279 Z"></path>
                                <polygon points="54.0965457 0.467272109 44.6961425 0.467272109 29.7195886 35.9931293 39.9721846 35.9931293 45.4047867 22.085449 45.3491869 22.085449 49.3210317 12.0558231 53.2413203 22.085449 53.2160477 22.085449 58.6173117 35.9931293 69.0710777 35.9931293"></polygon>
                                <path d="M216.384161,23.6970816 C220.755313,21.8320476 223.621228,18.2560476 223.621228,12.8636667 L223.621228,12.7643333 C223.621228,9.28462585 222.565843,6.56512245 220.504609,4.54906122 C218.143135,2.12958503 214.423006,0.719659864 209.046003,0.719659864 L192.410555,0.719659864 L192.410555,35.9931293 L202.160731,35.9931293 L202.160731,25.3097279 L202.160731,17.6468707 L202.160731,9.18326531 L205.48863,9.18326531 L208.544595,9.18326531 C211.811839,9.18326531 213.822528,10.5962313 213.822528,13.3674286 L213.822528,13.4677755 C213.822528,16.0372653 211.910907,17.6478844 208.594129,17.6478844 L206.432815,17.6478844 L206.432815,25.3107415 L213.520268,35.9941429 L224.777703,35.9941429 L216.384161,23.6970816 Z"></path>
                            </g>
                        </g>
                    </g>
                </g>
            </g>
        </g>
    </g>
</svg>