<?xml version="1.0" encoding="UTF-8" standalone="no"?>
<svg width="300px" height="83px" viewBox="0 0 300 83" version="1.1" xmlns="http://www.w3.org/2000/svg" xmlns:xlink="http://www.w3.org/1999/xlink">
    <!-- Generator: Sketch 40.3 (33839) - http://www.bohemiancoding.com/sketch -->
    <title>factordaily</title>
    <desc>Created with Sketch.</desc>
    <defs></defs>
    <g id="Page-1" stroke="none" stroke-width="1" fill="none" fill-rule="evenodd">
        <g id="factordaily">
            <g id="Layer_1">
                <g id="Group">
                    <g>
                        <polygon id="Shape" fill="#E21F26" points="35.8 8.2 44.8 0 35.8 0"></polygon>
                        <polygon id="Shape" fill="#A8D7D8" points="0.2 8.2 9.1 8.2 0.2 0"></polygon>
                        <polygon id="Shape" fill="#ED7D23" points="0.2 0 9.1 8.2 18 0"></polygon>
                        <polygon id="Shape" fill="#5ABDBE" points="18 0 26.9 8.2 35.8 8.2 26.9 0"></polygon>
                        <polygon id="Shape" fill="#E21F26" points="18 0 18 8.2 26.9 8.2"></polygon>
                        <polygon id="Shape" fill="#F8BB16" points="44.8 0 44.8 8.2 53.7 8.2"></polygon>
                        <polygon id="Shape" fill="#E21F26" points="0.2 33 0.2 24.8 9.1 24.8"></polygon>
                        <polygon id="Shape" fill="#5ABDBE" points="9.1 33 18 33 18 24.8"></polygon>
                        <polygon id="Shape" fill="#ED7D23" points="9.1 16.5 9.1 24.8 18 16.5"></polygon>
                        <polygon id="Shape" fill="#5ABDBE" points="35.8 41.3 44.7 41.3 35.8 33"></polygon>
                        <polygon id="Shape" fill="#A8D7D8" points="26.9 33 35.8 33 35.8 41.3"></polygon>
                        <polygon id="Shape" fill="#E21F26" points="18 41.3 9.1 33 9.1 41.3"></polygon>
                        <polygon id="Shape" fill="#F8BB16" points="9.1 33 18 41.3 18 33"></polygon>
                        <rect id="Rectangle-path" fill="#F8BB16" x="0.2" y="33" width="8.9" height="8.3"></rect>
                        <polygon id="Shape" fill="#E21F26" points="26.9 41.3 17.9 41.3 26.9 33"></polygon>
                        <polygon id="Shape" fill="#E21F26" points="18 57.8 9.1 57.8 18 49.5"></polygon>
                        <polygon id="Shape" fill="#5ABDBE" points="9.1 57.8 9.1 66 0.2 66"></polygon>
                        <polygon id="Shape" fill="#ED7D23" points="18 57.8 18 66 9.1 66"></polygon>
                        <polygon id="Shape" fill="#A8D7D8" points="9.1 57.8 9.1 66 18 57.8"></polygon>
                        <polygon id="Shape" fill="#E21F26" points="0.2 49.5 0.2 57.8 9.1 49.5"></polygon>
                        <rect id="Rectangle-path" fill="#ED7D23" x="26.9" y="41.3" width="8.9" height="8.3"></rect>
                        <polygon id="Shape" fill="#F8BB16" points="35.8 49.5 35.8 41.3 44.7 41.3"></polygon>
                        <polygon id="Shape" fill="#ED7D23" points="18 49.5 9.1 41.3 18 41.3"></polygon>
                        <polygon id="Shape" fill="#5ABDBE" points="18 49.5 9.1 41.3 0.2 49.5"></polygon>
                        <polygon id="Shape" fill="#5ABDBE" points="26.9 49.5 26.9 41.3 17.9 49.5"></polygon>
                        <polygon id="Shape" fill="#ED7D23" points="0.2 66 0.2 74.3 9.1 74.3"></polygon>
                        <polygon id="Shape" fill="#F8BB16" points="0.2 66 9.1 74.3 18 74.3 18 66"></polygon>
                        <polygon id="Shape" fill="#E21F26" points="9.1 82.5 18 74.3 18 82.5"></polygon>
                        <polygon id="Shape" fill="#F8BB16" points="0.2 57.8 9.1 49.5 9.1 57.8"></polygon>
                        <rect id="Rectangle-path" fill="#5ABDBE" x="0.2" y="74.3" width="8.9" height="8.3"></rect>
                        <rect id="Rectangle-path" fill="#F8BB16" x="18" y="8.2" width="8.9" height="8.3"></rect>
                        <rect id="Rectangle-path" fill="#ED7D23" x="35.8" y="8.2" width="8.9" height="8.3"></rect>
                        <polygon id="Shape" fill="#5ABDBE" points="44.8 8.2 53.7 8.2 44.8 16.5"></polygon>
                        <polygon id="Shape" fill="#A8D7D8" points="26.9 16.6 26.9 8.2 35.8 8.2"></polygon>
                        <rect id="Rectangle-path" fill="#E21F26" x="0.2" y="8.2" width="8.9" height="8.3"></rect>
                        <polygon id="Shape" fill="#E21F26" points="9.1 16.5 18 8.2 18 16.5"></polygon>
                        <polygon id="Shape" fill="#F8BB16" points="9.1 16.5 9.1 8.2 18 8.2"></polygon>
                    </g>
                    <g transform="translate(77.000000, 47.000000)" id="Shape" fill="#333333">
                        <path d="M0.8,0.6 L14.2,0.6 C26.6,0.6 33.8,7.8 33.8,17.8 L33.8,17.9 C33.8,27.9 26.5,35.4 14,35.4 L0.8,35.4 L0.8,0.6 L0.8,0.6 Z M14.4,26.9 C20.2,26.9 24,23.7 24,18.1 L24,18 C24,12.4 20.2,9.2 14.4,9.2 L10.5,9.2 L10.5,26.9 L14.4,26.9 L14.4,26.9 Z"></path>
                        <polygon points="82 0.6 91.7 0.6 91.7 35.4 82 35.4"></polygon>
                        <polygon points="101.1 0.6 110.7 0.6 110.7 27 127.6 27 127.6 35.5 101.1 35.5"></polygon>
                        <polygon points="138.3 22.4 125.1 0.6 136.1 0.6 143.3 13.3 150.5 0.6 161.3 0.6 148 22.3 148 35.5 138.3 35.5"></polygon>
                        <polygon points="60.7 0.4 51.4 0.4 36.6 35.5 46.7 35.5 52.1 21.7 52 21.7 55.9 11.8 59.8 21.7 59.8 21.7 65.1 35.5 75.5 35.5"></polygon>
                    </g>
                    <g transform="translate(77.000000, 0.000000)" id="Shape" fill="#333333">
                        <polygon points="0.8 1.1 28.6 1.1 28.6 9.6 10.5 9.6 10.5 15.5 27 15.5 27 23.5 10.5 23.5 10.5 35.9 0.9 35.9 0.9 1.1"></polygon>
                        <path d="M71.1,18.6 L71.1,18.6 C71.1,8.4 78.9,0.4 89.4,0.4 C96.5,0.4 101.1,3.4 104.2,7.7 L96.9,13.3 C94.9,10.8 92.6,9.2 89.3,9.2 C84.4,9.2 81,13.3 81,18.4 L81,18.5 C81,23.7 84.4,27.8 89.3,27.8 C92.9,27.8 95.1,26.1 97.2,23.6 L104.5,28.8 C101.2,33.3 96.8,36.7 89.1,36.7 C79.1,36.6 71.1,29 71.1,18.6 L71.1,18.6 Z"></path>
                        <polygon points="120.1 9.6 109.7 9.6 109.7 1.1 140.2 1.1 140.2 9.6 129.8 9.6 129.8 36 120.2 36 120.2 9.6"></polygon>
                        <path d="M144.7,18.6 L144.7,18.6 C144.7,8.5 152.8,0.4 163.5,0.4 C174.2,0.4 182.2,8.4 182.2,18.4 L182.2,18.5 C182.2,28.5 174.1,36.6 163.4,36.6 C152.6,36.6 144.7,28.6 144.7,18.6 L144.7,18.6 Z M172.3,18.6 L172.3,18.6 C172.3,13.5 168.7,9.1 163.4,9.1 C158.1,9.1 154.6,13.4 154.6,18.4 L154.6,18.5 C154.6,23.5 158.2,27.9 163.5,27.9 C168.8,27.9 172.3,23.6 172.3,18.6 L172.3,18.6 Z"></path>
                        <polygon points="53.4 0.9 44.1 0.9 29.2 35.9 39.4 35.9 44.8 22.2 44.7 22.2 48.6 12.3 52.5 22.2 52.5 22.2 57.8 35.9 68.2 35.9"></polygon>
                        <path d="M213.9,23.8 C218.2,22 221.1,18.4 221.1,13.1 L221.1,13 C221.1,9.6 220.1,6.9 218,4.9 C215.7,2.5 212,1.1 206.7,1.1 L190.2,1.1 L190.2,35.9 L199.8,35.9 L199.8,25.4 L199.8,17.8 L199.8,9.5 L203.1,9.5 L206.1,9.5 C209.3,9.5 211.3,10.9 211.3,13.6 L211.3,13.7 C211.3,16.2 209.4,17.8 206.1,17.8 L204,17.8 L204,25.4 L211,35.9 L222.1,35.9 L213.9,23.8 L213.9,23.8 Z"></path>
                    </g>
                </g>
            </g>
        </g>
    </g>
</svg>