<?xml version="1.0" encoding="UTF-8" standalone="no"?>
<svg width="159px" height="71px" viewBox="0 0 159 71" version="1.1" xmlns="http://www.w3.org/2000/svg" xmlns:xlink="http://www.w3.org/1999/xlink">
    <!-- Generator: Sketch 41.2 (35397) - http://www.bohemiancoding.com/sketch -->
    <title>contact form desktop</title>
    <desc>Created with Sketch.</desc>
    <defs></defs>
    <g id="Page-6---Form" stroke="none" stroke-width="1" fill="none" fill-rule="evenodd">
        <g id="Contact-forms-Desktop-HD-1920--v2" transform="translate(-608.000000, -1933.000000)">
            <g id="Group-5" transform="translate(509.000000, 1783.000000)">
                <g id="contact-form-desktop" transform="translate(100.000000, 150.000000)">
                    <polyline id="Path-2-Copy-2" stroke="#D4D4D4" points="35.859375 6 0 6 3.04526704e-15 70 156.679887 70 157.168945 6 124.96641 6"></polyline>
                    <path d="M69.5660524,7.75292969 L69.5660524,6.54882812 L64.4068727,6.54882812 L64.4068727,7.9375 L67.9840211,7.9375 L67.9840211,8.16601562 C67.9840211,10.2929688 66.4371461,11.7519531 64.1871461,11.7519531 C61.6031617,11.7519531 60.0035524,9.77441406 60.0035524,6.58398438 C60.0035524,3.44628906 61.5767945,1.56542969 64.1871461,1.56542969 C65.9713258,1.56542969 67.2984742,2.54101562 67.825818,4.25488281 L69.4869508,4.25488281 C69.0123414,1.73242188 66.9293336,0.106445312 64.1871461,0.106445312 C60.6363649,0.106445312 58.3775758,2.62890625 58.3775758,6.59277344 C58.3775758,10.6269531 60.6451539,13.2109375 64.1871461,13.2109375 C67.5709352,13.2109375 69.5660524,11.1806641 69.5660524,7.75292969 Z M75.3431886,4.78222656 C76.8373292,4.78222656 77.8568604,5.85449219 77.8920167,7.46289062 L72.6801026,7.46289062 C72.7855714,5.86328125 73.857837,4.78222656 75.3431886,4.78222656 Z M77.8568604,10.2929688 C77.5843995,11.1806641 76.6615479,11.7431641 75.4750245,11.7431641 C73.7875245,11.7431641 72.6801026,10.5742188 72.6801026,8.77246094 L72.6801026,8.68457031 L79.482837,8.68457031 L79.482837,8.08691406 C79.482837,5.22167969 77.9008057,3.4375 75.3695557,3.4375 C72.7855714,3.4375 71.0980714,5.36230469 71.0980714,8.29785156 C71.0980714,11.2333984 72.7767823,13.0878906 75.4398682,13.0878906 C77.4613526,13.0878906 79.1049073,11.9189453 79.3685792,10.2929688 L77.8568604,10.2929688 Z M81.7619263,1.38964844 L81.7619263,3.52539062 L80.4435669,3.52539062 L80.4435669,4.79101562 L81.7619263,4.79101562 L81.7619263,10.5390625 C81.7619263,12.3583984 82.4298951,13.0703125 84.1437622,13.0703125 C84.5041138,13.0703125 84.9435669,13.0351562 85.1281372,12.9912109 L85.1281372,11.6992188 C85.0226685,11.7167969 84.6535279,11.7431641 84.4689576,11.7431641 C83.6603638,11.7431641 83.2912232,11.3476562 83.2912232,10.4775391 L83.2912232,4.79101562 L85.1369263,4.79101562 L85.1369263,3.52539062 L83.2912232,3.52539062 L83.2912232,1.38964844 L81.7619263,1.38964844 Z M91.5671753,13 L93.0964721,13 L93.0964721,3.52539062 L91.5671753,3.52539062 L91.5671753,13 Z M92.3318237,1.99609375 C92.8679565,1.99609375 93.2986206,1.55664062 93.2986206,1.02929688 C93.2986206,0.493164062 92.8679565,0.0625 92.3318237,0.0625 C91.8044799,0.0625 91.3650268,0.493164062 91.3650268,1.02929688 C91.3650268,1.55664062 91.8044799,1.99609375 92.3318237,1.99609375 Z M95.4282958,13 L96.9575927,13 L96.9575927,7.49804688 C96.9575927,5.87207031 97.8980224,4.79980469 99.4536864,4.79980469 C100.947827,4.79980469 101.66853,5.64355469 101.66853,7.19042969 L101.66853,13 L103.197827,13 L103.197827,6.92675781 C103.197827,4.7734375 101.993726,3.4375 99.9107177,3.4375 C98.4429443,3.4375 97.5025146,3.99121094 96.9048583,5.06347656 L96.8697021,5.06347656 L96.8697021,3.52539062 L95.4282958,3.52539062 L95.4282958,13 Z" id="Get-in" fill="#FFFFFF"></path>
                    <path d="M44.2558341,51 L44.2558341,31.7607422 L51.0717521,31.7607422 L51.0717521,27.7485352 L32.5898185,27.7485352 L32.5898185,31.7607422 L39.3896232,31.7607422 L39.3896232,51 L44.2558341,51 Z M58.6822114,51.3061523 C64.0640473,51.3061523 67.4317231,47.8740234 67.4317231,42.121582 C67.4317231,36.4335938 64.0318208,32.953125 58.6822114,32.953125 C53.3487153,32.953125 49.9326997,36.449707 49.9326997,42.121582 C49.9326997,47.8579102 53.3003755,51.3061523 58.6822114,51.3061523 Z M58.6822114,47.6806641 C56.2007661,47.6806641 54.7022309,45.6503906 54.7022309,42.121582 C54.7022309,38.6411133 56.2007661,36.5625 58.6822114,36.5625 C61.1475434,36.5625 62.6460786,38.625 62.6460786,42.121582 C62.6460786,45.6503906 61.1636567,47.6806641 58.6822114,47.6806641 Z M86.5148387,33.2592773 L81.8097606,33.2592773 L81.8097606,43.3623047 C81.8097606,45.7631836 80.4401317,47.3422852 78.2487254,47.3422852 C76.0734324,47.3422852 74.8810496,46.0532227 74.8810496,43.6523438 L74.8810496,33.2592773 L70.1759715,33.2592773 L70.1759715,44.6352539 C70.1759715,48.7602539 72.7057567,51.2578125 76.5407176,51.2578125 C79.2316356,51.2578125 80.9718699,50.0170898 81.8742137,47.793457 L81.9708934,47.793457 L81.9708934,51 L86.5148387,51 L86.5148387,33.2592773 Z M106.049126,39.8012695 C105.82354,35.8535156 102.77813,32.953125 98.0085988,32.953125 C92.7395558,32.953125 89.3557668,36.4980469 89.3557668,42.121582 C89.3557668,47.8256836 92.7395558,51.3061523 98.0408254,51.3061523 C102.697564,51.3061523 105.791314,48.6796875 106.065239,44.5546875 L101.682427,44.5546875 C101.376275,46.5043945 100.071099,47.5839844 98.0891652,47.5839844 C95.6560597,47.5839844 94.125298,45.5859375 94.125298,42.121582 C94.125298,38.7216797 95.6560597,36.6591797 98.0730519,36.6591797 C100.119439,36.6591797 101.408501,37.9643555 101.666314,39.8012695 L106.049126,39.8012695 Z M108.857828,51 L113.562906,51 L113.562906,40.9291992 C113.562906,38.5444336 114.932535,36.9169922 117.252847,36.9169922 C119.492593,36.9169922 120.65275,38.3188477 120.65275,40.6391602 L120.65275,51 L125.357828,51 L125.357828,39.65625 C125.357828,35.5473633 123.085855,33.0014648 119.154214,33.0014648 C116.447183,33.0014648 114.578043,34.1938477 113.579019,36.4335938 L113.482339,36.4335938 L113.482339,26.6367188 L108.857828,26.6367188 L108.857828,51 Z" id="Touch" fill="#FFFFFF"></path>
                </g>
            </g>
        </g>
    </g>
</svg>