<?xml version="1.0" encoding="UTF-8" standalone="no"?>
<svg width="18px" height="18px" viewBox="0 0 18 18" version="1.1" xmlns="http://www.w3.org/2000/svg" xmlns:xlink="http://www.w3.org/1999/xlink">
    <!-- Generator: sketchtool 41.2 (35397) - http://www.bohemiancoding.com/sketch -->
    <title>7CFA22E3-F137-43D6-BB96-5A1B1D396E8F</title>
    <desc>Created with sketchtool.</desc>
    <defs></defs>
    <g id="Page-2---Landing-Page" stroke="none" stroke-width="1" fill="none" fill-rule="evenodd">
        <g id="Desktop-HD-1366---v2" transform="translate(-696.000000, -8260.000000)" fill="#FFFFFF">
            <g id="Group-12" transform="translate(-277.000000, 30.000000)">
                <g id="Footer" transform="translate(0.000000, 8170.000000)">
                    <g id="Group-Copy-7">
                        <g transform="translate(874.625000, 59.788235)">
                            <path d="M114.820838,1.06764706 L100.751038,1.06764706 C99.9314375,1.06764706 99.2484375,1.75094118 99.2484375,2.57089412 L99.2484375,6.75607059 L104.934413,6.75607059 C105.788163,6.14110588 106.693138,5.61155294 107.785938,5.61155294 C108.844588,5.61155294 109.800788,6.14110588 110.637463,6.75607059 L116.323438,6.75607059 L116.323438,2.57089412 C116.323438,1.75094118 115.640438,1.06764706 114.820838,1.06764706 L114.820838,1.06764706 Z M115.179413,5.03075294 C115.179413,5.35531765 114.923288,5.62863529 114.598863,5.62863529 L112.362038,5.62863529 C112.037613,5.62863529 111.764413,5.35531765 111.764413,5.03075294 L111.764413,2.79296471 C111.764413,2.4684 112.037613,2.21216471 112.362038,2.21216471 L114.598863,2.21216471 C114.923288,2.21216471 115.179413,2.4684 115.179413,2.79296471 L115.179413,5.03075294 Z M110.637462,10.1725412 C110.637462,8.60096471 109.356837,7.33687059 107.785937,7.33687059 C106.215037,7.33687059 104.934412,8.60096471 104.934412,10.1725412 C104.934412,11.7441176 106.215037,13.0252941 107.785937,13.0252941 C109.356837,13.0252941 110.637462,11.7441176 110.637462,10.1725412 L110.637462,10.1725412 Z M112.140063,9.04510588 C112.242513,9.38675294 112.276663,9.74548235 112.276663,10.1042118 C112.276663,12.5982353 110.261813,14.6139529 107.785938,14.6139529 C105.310063,14.6139529 103.295213,12.5982353 103.295213,10.1042118 C103.295213,9.74548235 103.329363,9.38675294 103.431813,9.04510588 L99.2484375,9.04510588 L99.2484375,16.6467529 C99.2484375,17.4667059 99.9314375,18.15 100.751038,18.15 L114.820838,18.15 C115.640438,18.15 116.323438,17.4667059 116.323438,16.6467529 L116.323438,9.04510588 L112.140063,9.04510588 Z" id="Instagram"></path>
                        </g>
                    </g>
                </g>
            </g>
        </g>
    </g>
</svg>