<?xml version="1.0" encoding="utf-8"?>
<!-- Generator: Adobe Illustrator 18.0.0, SVG Export Plug-In . SVG Version: 6.00 Build 0)  -->
<!DOCTYPE svg PUBLIC "-//W3C//DTD SVG 1.1//EN" "http://www.w3.org/Graphics/SVG/1.1/DTD/svg11.dtd">
<svg version="1.1" id="Layer_1" xmlns="http://www.w3.org/2000/svg" xmlns:xlink="http://www.w3.org/1999/xlink" x="0px" y="0px"
	 width="299.2px" height="83.5px" viewBox="0 0 299.2 83.5" style="enable-background:new 0 0 299.2 83.5;" xml:space="preserve">
<g>
	<g>
		<polygon style="fill:#E21F26;" points="35.8,8.2 44.8,0 35.8,0 		"/>
		<polygon style="fill:#A8D7D8;" points="0.2,8.2 9.1,8.2 0.2,0 		"/>
		<polygon style="fill:#ED7D23;" points="0.2,0 9.1,8.2 18,0 		"/>
		<polygon style="fill:#5ABDBE;" points="18,0 26.9,8.2 35.8,8.2 26.9,0 		"/>
		<polygon style="fill:#E21F26;" points="18,0 18,8.2 26.9,8.2 		"/>
		<polygon style="fill:#F8BB16;" points="44.8,0 44.8,8.2 53.7,8.2 		"/>
		<polygon style="fill:#E21F26;" points="0.2,33 0.2,24.8 9.1,24.8 		"/>
		<polygon style="fill:#5ABDBE;" points="9.1,33 18,33 18,24.8 		"/>
		<polygon style="fill:#ED7D23;" points="9.1,16.5 9.1,24.8 18,16.5 		"/>
		<polygon style="fill:#5ABDBE;" points="35.8,41.3 44.7,41.3 35.8,33 		"/>
		<polygon style="fill:#A8D7D8;" points="26.9,33 35.8,33 35.8,41.3 		"/>
		<polygon style="fill:#E21F26;" points="18,41.3 9.1,33 9.1,41.3 		"/>
		<polygon style="fill:#F8BB16;" points="9.1,33 18,41.3 18,33 		"/>
		<rect x="0.2" y="33" style="fill:#F8BB16;" width="8.9" height="8.3"/>
		<polygon style="fill:#E21F26;" points="26.9,41.3 17.9,41.3 26.9,33 		"/>
		<polygon style="fill:#E21F26;" points="18,57.8 9.1,57.8 18,49.5 		"/>
		<polygon style="fill:#5ABDBE;" points="9.1,57.8 9.1,66 0.2,66 		"/>
		<polygon style="fill:#ED7D23;" points="18,57.8 18,66 9.1,66 		"/>
		<polygon style="fill:#A8D7D8;" points="9.1,57.8 9.1,66 18,57.8 		"/>
		<polygon style="fill:#E21F26;" points="0.2,49.5 0.2,57.8 9.1,49.5 		"/>
		<rect x="26.9" y="41.3" style="fill:#ED7D23;" width="8.9" height="8.3"/>
		<polygon style="fill:#F8BB16;" points="35.8,49.5 35.8,41.3 44.7,41.3 		"/>
		<polygon style="fill:#ED7D23;" points="18,49.5 9.1,41.3 18,41.3 		"/>
		<polygon style="fill:#5ABDBE;" points="18,49.5 9.1,41.3 0.2,49.5 		"/>
		<polygon style="fill:#5ABDBE;" points="26.9,49.5 26.9,41.3 17.9,49.5 		"/>
		<polygon style="fill:#ED7D23;" points="0.2,66 0.2,74.3 9.1,74.3 		"/>
		<polygon style="fill:#F8BB16;" points="0.2,66 9.1,74.3 18,74.3 18,66 		"/>
		<polygon style="fill:#E21F26;" points="9.1,82.5 18,74.3 18,82.5 		"/>
		<polygon style="fill:#F8BB16;" points="0.2,57.8 9.1,49.5 9.1,57.8 		"/>
		<rect x="0.2" y="74.3" style="fill:#5ABDBE;" width="8.9" height="8.3"/>
		<rect x="18" y="8.2" style="fill:#F8BB16;" width="8.9" height="8.3"/>
		<rect x="35.8" y="8.2" style="fill:#ED7D23;" width="8.9" height="8.3"/>
		<polygon style="fill:#5ABDBE;" points="44.8,8.2 53.7,8.2 44.8,16.5 		"/>
		<polygon style="fill:#A8D7D8;" points="26.9,16.6 26.9,8.2 35.8,8.2 		"/>
		<rect x="0.2" y="8.2" style="fill:#E21F26;" width="8.9" height="8.3"/>
		<polygon style="fill:#E21F26;" points="9.1,16.5 18,8.2 18,16.5 		"/>
		<polygon style="fill:#F8BB16;" points="9.1,16.5 9.1,8.2 18,8.2 		"/>
	</g>

</g>
</svg>
