<?xml version="1.0" encoding="UTF-8" standalone="no"?>
<svg width="36px" height="36px" viewBox="0 0 36 36" version="1.1" xmlns="http://www.w3.org/2000/svg" xmlns:xlink="http://www.w3.org/1999/xlink">
    <!-- Generator: sketchtool 41.2 (35397) - http://www.bohemiancoding.com/sketch -->
    <title>7B68AF9C-306A-4674-937D-7D4EA0FE0F9E</title>
    <desc>Created with sketchtool.</desc>
    <defs></defs>
    <g id="Page-2---Landing-Page" stroke="none" stroke-width="1" fill="none" fill-rule="evenodd">
        <g id="Desktop-HD-1920--v2" transform="translate(-716.000000, -3338.000000)" fill="#000000">
            <g id="Makers" transform="translate(340.000000, 2772.000000)">
                <g id="Group-9" transform="translate(303.000000, 563.000000)">
                    <g id="Group-7" transform="translate(0.000000, 3.000000)">
                        <g id="makers-tools-readmore" transform="translate(73.000000, 0.000000)">
                            <g id="Group">
                                <g id="Shape">
                                    <path d="M22.5320309,16.1309991 L23.7429788,14.9176674 L21.321083,12.4839906 L18.087222,15.7242174 L6.46772181,4.0888576 L6.90870285,2.77032376 L2.23990366,0.0350673893 L0,2.27938031 L2.72988258,6.95737005 L4.04582598,6.51552094 L15.6583265,18.1508807 L12.4314653,21.3911075 L14.8533611,23.8177708 L16.0643091,22.6044392 L27.690809,34.2538259 C29.7907187,36.3578693 32.7305922,35.6845754 34.1585308,34.2538259 C35.943454,32.4653891 35.943454,29.5618092 34.1585308,27.7733724 L22.5320309,16.1309991 Z M4.35381274,5.20400058 L3.24786031,5.57571491 L1.43493828,2.46173073 L2.42889553,1.46581687 L5.52976216,3.28932112 L5.15877811,4.39745062 L17.275257,16.5377808 L16.4702916,17.3443308 L4.35381274,5.20400058 Z M14.8533611,22.2046709 L14.0483958,21.3911075 L21.321083,14.104104 L22.133048,14.9106539 L14.8533611,22.2046709 Z M33.3535654,33.447276 C32.0166229,34.7868502 29.8397166,34.7868502 28.5027741,33.447276 L16.8762741,21.7978892 L18.8991871,19.7709941 L30.5186874,31.4203809 L31.3236527,30.6138309 L19.7041525,18.9644442 L21.7270655,16.9375491 L33.3535654,28.5869358 C34.6835082,29.9265101 34.6835082,32.1077017 33.3535654,33.447276 Z"></path>
                                    <path d="M7.14669261,33.4122086 C5.80975011,34.7517828 3.63284375,34.7517828 2.29590125,33.4122086 C0.958958754,32.0726343 0.958958754,29.8914427 2.29590125,28.5518684 L13.3904241,17.435506 L12.5854587,16.6219425 L1.49093587,27.738305 C-0.293987355,29.5267418 -0.293987355,32.4303217 1.49093587,34.2187585 C3.62584405,36.3578693 6.72671068,35.5934002 7.95865769,34.2187585 L17.0582663,25.1012373 L16.2533009,24.2946873 L7.14669261,33.4122086 Z"></path>
                                    <path d="M17.3942518,13.4237966 L18.8921874,11.9229124 C17.7442368,9.18765601 18.6751968,5.65987664 20.7751064,3.55583328 C22.4620339,1.86558511 24.7719345,1.03098125 27.1238334,1.24138558 L23.2879984,5.08477145 L26.0178809,9.64353207 L30.5676852,12.3787884 L34.4035203,8.53540257 C34.6135112,10.8849177 33.7875468,13.2063788 32.0936196,14.896627 C30.4626898,16.5307673 28.2087867,17.3793982 25.8988861,17.2251016 L25.8218894,18.3682985 C28.712765,18.5646759 31.1766591,17.4284925 32.898585,15.7101904 C37.0284074,11.5722385 35.1174895,6.19290096 35.1174895,6.19290096 L30.3856931,10.934012 L26.8508451,8.8089282 L24.7299363,5.26712188 L29.4617328,0.52601084 C29.4617328,0.52601084 24.0789643,-1.36762818 19.9701411,2.74928332 C17.6532407,5.0707445 16.7642789,8.43721388 17.6042428,11.6002924 L16.5822868,12.6242602 L17.3942518,13.4237966 Z"></path>
                                    <path d="M2.95387295,31.0206126 C2.95387295,31.9814591 3.73083953,32.7599551 4.68979829,32.7599551 C5.64875704,32.7599551 6.42572362,31.9814591 6.42572362,31.0206126 C6.42572362,30.0597661 5.64875704,29.2812701 4.68979829,29.2812701 C3.73083953,29.2742566 2.95387295,30.0597661 2.95387295,31.0206126 Z M5.28477269,31.0206126 C5.28477269,31.3502461 5.01878414,31.6167582 4.68979829,31.6167582 C4.36081244,31.6167582 4.09482388,31.3502461 4.09482388,31.0206126 C4.09482388,30.6909792 4.36081244,30.424467 4.68979829,30.424467 C5.01878414,30.424467 5.28477269,30.6909792 5.28477269,31.0206126 Z"></path>
                                </g>
                            </g>
                        </g>
                    </g>
                </g>
            </g>
        </g>
    </g>
</svg>