<?xml version="1.0" encoding="UTF-8" standalone="no"?>
<svg width="29px" height="39px" viewBox="0 0 29 39" version="1.1" xmlns="http://www.w3.org/2000/svg" xmlns:xlink="http://www.w3.org/1999/xlink">
    <!-- Generator: sketchtool 41.2 (35397) - http://www.bohemiancoding.com/sketch -->
    <title>9FE33542-4080-4455-8185-507E5804BC82</title>
    <desc>Created with sketchtool.</desc>
    <defs></defs>
    <g id="Page-2---Landing-Page" stroke="none" stroke-width="1" fill="none" fill-rule="evenodd">
        <g id="Desktop-HD-1920--v2" transform="translate(-1164.000000, -3336.000000)" fill="#000000">
            <g id="Makers" transform="translate(340.000000, 2772.000000)">
                <g id="Group-9" transform="translate(303.000000, 563.000000)">
                    <g id="Group-8" transform="translate(431.000000, 0.000000)">
                        <g id="makers-pen-contact" transform="translate(101.500000, 22.000000) scale(1, -1) rotate(-32.000000) translate(-101.500000, -22.000000) translate(93.000000, 2.000000)">
                            <g id="Group" transform="translate(-0.000000, 0.000000)">
                                <path d="M16.6225707,31.5509776 C16.6660016,30.6368637 15.4499374,29.8968667 13.7561337,29.5051036 C13.8864263,25.4133557 14.4510275,16.3157459 15.1893522,12.9204657 C15.6670917,10.7875333 14.624751,9.52518553 13.4086868,8.0451916 C12.7572239,7.21813617 12.0188992,6.39108074 11.4108671,5.21579144 C9.80392516,2.34286205 9.49990911,1.08051429 9.49990911,0.514634253 C9.49990911,0.253458854 9.2827548,0.0793419206 8.97873875,0.0793419206 L7.71924372,0.0793419206 C7.41522767,0.0793419206 7.19807336,0.253458854 7.19807336,0.514634253 C7.19807336,1.08051429 6.89405731,2.29933282 5.28711537,5.21579144 C4.63565242,6.34755151 3.89732774,7.2616654 3.28929566,8.0451916 C2.07323148,9.52518553 1.03089077,10.8310625 1.50863026,12.963995 C2.33381666,16.4028044 2.81155616,25.4568849 2.94184875,29.5486328 C1.29147595,29.9839252 0.118842635,30.6803929 0.0754117718,31.5074483 C0.0754117718,31.5074483 0.0754117718,31.5074483 0.0754117718,31.5509776 L0.0754117718,38.907418 C0.0754117718,39.1250641 0.292566088,39.2991811 0.553151268,39.2991811 L16.1882621,39.2991811 C16.4488472,39.2991811 16.6660016,39.1250641 16.6660016,38.907418 L16.6225707,31.5509776 L16.6225707,31.5509776 Z M2.46410925,12.8334073 C2.02980062,11.0051795 2.89841789,9.96047787 4.11448206,8.5675424 C4.80937587,7.74048697 5.59113141,6.82637307 6.24259436,5.60755454 C6.98091904,4.21461908 7.54552026,3.12638825 7.84953631,2.21227435 L7.84953631,12.2675272 C7.11121163,12.4851734 6.59004127,13.1381119 6.59004127,13.9651673 C6.59004127,14.9228105 7.37179681,15.7063367 8.3272758,15.7063367 C9.2827548,15.7063367 10.0645103,14.9228105 10.0645103,13.9651673 C10.0645103,13.1816411 9.54333998,12.4851734 8.8050153,12.2675272 L8.8050153,2.21227435 C9.15246221,3.12638825 9.67363257,4.25814831 10.4119572,5.60755454 C11.1068511,6.82637307 11.8451757,7.74048697 12.5400695,8.5675424 C13.7127029,9.96047787 14.5813201,11.0051795 14.1904424,12.789878 C13.2783942,16.707509 12.7572239,28.0251097 12.713793,30.8980391 C12.2360535,31.072156 10.9765585,31.5074483 8.37070667,31.5509776 L8.15355235,31.5509776 C5.67799314,31.5509776 4.4184981,31.1156852 3.98418947,30.8980391 C3.98418947,27.9815804 3.41958825,16.707509 2.46410925,12.8334073 Z M15.58023,38.3415379 L0.987459902,38.3415379 L0.987459902,32.8568545 C2.46410925,33.7709684 5.46083882,34.24979 8.3272758,34.24979 C11.1068511,34.24979 14.0601498,33.8144977 15.58023,32.943913 L15.58023,38.3415379 Z M8.41413753,33.3792053 C3.94075861,33.3792053 1.11775249,32.3345037 1.11775249,31.5509776 C1.11775249,31.2027437 1.76921544,30.7674514 2.89841789,30.3756883 L2.89841789,31.1156852 C2.89841789,31.2462729 2.98527961,31.3768606 3.1155722,31.4639191 C3.28929566,31.5509776 4.59222156,32.4215622 8.19698321,32.4215622 L8.37070667,32.378033 C12.1057609,32.3345037 13.4086868,31.5074483 13.5389794,31.4203899 C13.6258411,31.3333314 13.7127029,31.2027437 13.7127029,31.072156 L13.7127029,30.332159 C14.9721979,30.6803929 15.6670917,31.1592145 15.6670917,31.5509776 C15.6670917,32.2909745 12.9309473,33.3792053 8.41413753,33.3792053 Z" id="Shape"></path>
                            </g>
                        </g>
                    </g>
                </g>
            </g>
        </g>
    </g>
</svg>