<?xml version="1.0" encoding="UTF-8" standalone="no"?>
<svg width="66px" height="61px" viewBox="0 0 66 61" version="1.1" xmlns="http://www.w3.org/2000/svg" xmlns:xlink="http://www.w3.org/1999/xlink">
    <!-- Generator: sketchtool 41.2 (35397) - http://www.bohemiancoding.com/sketch -->
    <title>68E2F2DF-3DE3-4070-B559-3029A3CBAB08</title>
    <desc>Created with sketchtool.</desc>
    <defs></defs>
    <g id="Page-2---Landing-Page" stroke="none" stroke-width="1" fill="none" fill-rule="evenodd">
        <g id="Desktop-HD-1366---v2" transform="translate(-1081.000000, -7218.000000)">
            <g id="Messenger" transform="translate(599.000000, 7123.000000)">
                <g id="messenger" transform="translate(482.000000, 95.000000)">
                    <path d="M66,5.64814815 L66,42.9259259 C66,46.0007778 63.4077931,48.5740741 60.3103448,48.5740741 L27.3103448,48.5740741 L15.9310345,61 L15.9310345,48.5740741 L5.68965517,48.5740741 C2.5922069,48.5740741 0,46.0007778 0,42.9259259 L0,5.64814815 C0,2.5732963 2.5922069,0 5.68965517,0 L60.3103448,0 C63.4077931,0 66,2.5732963 66,5.64814815 Z" id="Shape" fill="#4362A5"></path>
                    <polygon id="Shape" fill="#FFFFFF" points="10.2413793 35.0185185 21.6206897 12.4259259 42.1034483 27.1111111 55.7586207 11.2962963 42.1034483 37.2777778 21.6206897 22.5925926"></polygon>
                </g>
            </g>
        </g>
    </g>
</svg>