<?xml version="1.0" encoding="UTF-8" standalone="no"?>
<svg width="19px" height="19px" viewBox="0 0 19 19" version="1.1" xmlns="http://www.w3.org/2000/svg" xmlns:xlink="http://www.w3.org/1999/xlink">
    <!-- Generator: Sketch 41.2 (35397) - http://www.bohemiancoding.com/sketch -->
    <title>news</title>
    <desc>Created with Sketch.</desc>
    <defs></defs>
    <g id="Page-2---Landing-Page" stroke="none" stroke-width="1" fill="none" fill-rule="evenodd">
        <g id="Desktop-HD-1920--v2" transform="translate(-994.000000, -274.000000)" fill="#999999">
            <g id="Group-14" transform="translate(817.000000, 268.000000)">
                <g id="Group-13" transform="translate(162.000000, 0.000000)">
                    <g id="news" transform="translate(15.000000, 6.000000)">
                        <g id="Group">
                            <g transform="translate(0.000000, 0.504941)" id="Shape">
                                <path d="M15.2,0.08601775 C15.4502872,0.09409275 15.669162,0.347054 15.675,0.56101775 L15.675,4.83601775 L18.525,4.83601775 C18.7819513,4.84195525 18.994162,5.097054 19,5.31101775 L19,15.5235225 C19,16.69948 18.0384596,17.6610225 16.8625,17.6610225 L2.1375,17.6610225 C0.961540363,17.6610225 -1.18749085e-07,16.69948 -1.18749085e-07,15.5235225 L-1.18749085e-07,0.56101775 C2.37500009e-05,0.31230775 0.226297125,0.0860415 0.475,0.08601775 L15.2,0.08601775 L15.2,0.08601775 Z M14.725,1.03601775 L0.95,1.03601775 L0.95,15.5235225 C0.95,16.189615 1.47140964,16.7110225 2.1375,16.7110225 L15.140625,16.7110225 C14.9003631,16.3654363 14.725,15.97406 14.725,15.5235225 L14.725,1.03601775 L14.725,1.03601775 Z M12.825,2.46101775 C13.0764555,2.46101775 13.294162,2.722054 13.3,2.93601775 L13.3,6.26101775 C13.299976,6.50972775 13.0737029,6.735994 12.825,6.73601775 L8.075,6.73601775 C7.82629736,6.735994 7.60002399,6.50972775 7.6,6.26101775 L7.6,2.93601775 C7.60002399,2.68730775 7.82629736,2.4610415 8.075,2.46101775 L12.825,2.46101775 Z M5.7,2.93601775 C5.96233514,2.93601775 6.175,3.14867525 6.175,3.41101775 C6.175,3.67336025 5.96233514,3.88601775 5.7,3.88601775 L2.85,3.88601775 C2.58766486,3.88601775 2.375,3.67336025 2.375,3.41101775 C2.375,3.14867525 2.58766486,2.93601775 2.85,2.93601775 L5.7,2.93601775 Z M12.35,3.41101775 L8.55,3.41101775 L8.55,5.78601775 L12.35,5.78601775 L12.35,3.41101775 Z M5.7,5.31101775 C5.96233514,5.31101775 6.175,5.52367525 6.175,5.78601775 C6.175,6.04836025 5.96233514,6.26101775 5.7,6.26101775 L2.85,6.26101775 C2.58766486,6.26101775 2.375,6.04836025 2.375,5.78601775 C2.375,5.52367525 2.58766486,5.31101775 2.85,5.31101775 L5.7,5.31101775 Z M18.05,5.78601775 L15.675,5.78601775 L15.675,15.5235225 C15.675,16.189615 16.1964101,16.7110225 16.8625,16.7110225 C17.5285904,16.7110225 18.05,16.189615 18.05,15.5235225 L18.05,5.78601775 L18.05,5.78601775 Z M12.825,8.16101775 C13.0873354,8.16101775 13.3,8.37368 13.3,8.6360225 C13.3,8.898365 13.0873354,9.1110225 12.825,9.1110225 L2.85,9.1110225 C2.58766486,9.1110225 2.375,8.898365 2.375,8.6360225 C2.375,8.37368 2.58766486,8.16101775 2.85,8.16101775 L12.825,8.16101775 Z M12.825,10.7735225 C13.0873354,10.7735225 13.3,10.98618 13.3,11.2485225 C13.3,11.510865 13.0873354,11.7235225 12.825,11.7235225 L2.85,11.7235225 C2.58766486,11.7235225 2.375,11.510865 2.375,11.2485225 C2.375,10.98618 2.58766486,10.7735225 2.85,10.7735225 L12.825,10.7735225 Z M12.825,13.3860225 C13.0873354,13.3860225 13.3,13.59868 13.3,13.8610225 C13.3,14.123365 13.0873354,14.3360225 12.825,14.3360225 L2.85,14.3360225 C2.58766486,14.3360225 2.375,14.123365 2.375,13.8610225 C2.375,13.59868 2.58766486,13.3860225 2.85,13.3860225 L12.825,13.3860225 L12.825,13.3860225 Z"></path>
                            </g>
                        </g>
                    </g>
                </g>
            </g>
        </g>
    </g>
</svg>