<?xml version="1.0" encoding="UTF-8" standalone="no"?>
<svg width="117px" height="116px" viewBox="0 0 117 116" version="1.1" xmlns="http://www.w3.org/2000/svg" xmlns:xlink="http://www.w3.org/1999/xlink">
    <!-- Generator: sketchtool 41.2 (35397) - http://www.bohemiancoding.com/sketch -->
    <title>C69B49B2-5DB0-40CA-A8C4-36A019F8E34E</title>
    <desc>Created with sketchtool.</desc>
    <defs>
        <path d="M53.0941144,0.00148495967 C23.7727638,0.00148495967 0,23.7727194 0,53.0954755 C0,82.421944 23.7727638,106.192807 53.0941144,106.192807 C82.4154651,106.192807 106.188229,82.421944 106.188229,53.0954755 C106.188229,23.7760605 82.4154651,0.00148495967 53.0941144,0.00148495967 Z M53.0941144,96.2372663 C29.2682665,96.2372663 9.95530887,76.9231384 9.95530887,53.0958467 C9.95530887,29.2685551 29.2682665,9.95405591 53.0941144,9.95405591 C76.9199623,9.95405591 96.23292,29.2681839 96.23292,53.0954755 C96.23292,76.9227671 76.9199623,96.2372663 53.0941144,96.2372663 Z M74.5638454,50.6497469 L44.1774719,33.7282602 C41.9642736,32.3776894 39.7870835,33.4661649 39.7870835,36.1509719 L39.7870835,70.0700495 C39.7870835,72.7515154 41.9639024,73.8466732 44.1774719,72.48942 L74.5141022,55.8170353 C77.3283015,54.2140214 76.302999,51.6287066 74.5638454,50.6497469 Z" id="path-1"></path>
        <filter x="-50%" y="-50%" width="200%" height="200%" filterUnits="objectBoundingBox" id="filter-2">
            <feOffset dx="0" dy="2" in="SourceAlpha" result="shadowOffsetOuter1"></feOffset>
            <feGaussianBlur stdDeviation="2.5" in="shadowOffsetOuter1" result="shadowBlurOuter1"></feGaussianBlur>
            <feColorMatrix values="0 0 0 0 0   0 0 0 0 0   0 0 0 0 0  0 0 0 0.5 0" type="matrix" in="shadowBlurOuter1"></feColorMatrix>
        </filter>
    </defs>
    <g id="Page-2---Landing-Page" stroke="none" stroke-width="1" fill="none" fill-rule="evenodd">
        <g id="Desktop-HD-1920--v2" transform="translate(-902.000000, -5574.000000)">
            <g id="Group-3" transform="translate(338.000000, 5425.000000)">
                <g id="weekly-pics" transform="translate(0.188878, 0.000000)">
                    <g id="play" transform="translate(569.541421, 151.820994)">
                        <g id="Layer_1">
                            <g id="Shape">
                                <use fill="black" fill-opacity="1" filter="url(#filter-2)" xlink:href="#path-1"></use>
                                <use fill="#FFFFFF" fill-rule="evenodd" xlink:href="#path-1"></use>
                            </g>
                        </g>
                    </g>
                </g>
            </g>
        </g>
    </g>
</svg>