<?xml version="1.0" encoding="UTF-8" standalone="no"?>
<svg width="18px" height="18px" viewBox="0 0 18 18" version="1.1" xmlns="http://www.w3.org/2000/svg" xmlns:xlink="http://www.w3.org/1999/xlink">
    <!-- Generator: sketchtool 41.2 (35397) - http://www.bohemiancoding.com/sketch -->
    <title>2DAC0F4D-439D-4A05-B101-B57A23D12841</title>
    <desc>Created with sketchtool.</desc>
    <defs></defs>
    <g id="Page-2---Landing-Page" stroke="none" stroke-width="1" fill="none" fill-rule="evenodd">
        <g id="Desktop-HD-1366---v2" transform="translate(-751.000000, -8259.000000)" fill="#FFFFFF">
            <g id="Group-12" transform="translate(-277.000000, 30.000000)">
                <g id="Footer" transform="translate(0.000000, 8170.000000)">
                    <g id="Group-Copy-7">
                        <g transform="translate(874.625000, 59.788235)">
                            <path d="M157.955843,14.9531078 C157.955843,13.7675054 156.988421,12.7996667 155.803329,12.7996667 C154.642422,12.7996667 153.675,13.7917014 153.675,14.9531078 C153.675,16.1145142 154.642422,17.0823529 155.803329,17.0823529 C156.964235,17.0823529 157.955843,16.1145142 157.955843,14.9531078 L157.955843,14.9531078 Z M164.945467,17.0823529 C164.945467,10.8639893 159.890687,5.80703216 153.675,5.80703216 L153.675,9.07348775 C158.076771,9.07348775 161.656232,12.6786869 161.656232,17.0823529 L164.945467,17.0823529 Z M170.75,17.0823529 C170.75,7.67012165 163.08318,0.0241959673 153.675,1.59872116e-14 L153.675,3.26645559 C161.293449,3.29065156 167.436579,9.46062323 167.460765,17.0823529 L170.75,17.0823529 Z" id="RSS"></path>
                        </g>
                    </g>
                </g>
            </g>
        </g>
    </g>
</svg>