<?xml version="1.0" encoding="UTF-8" standalone="no"?>
<svg width="19px" height="20px" viewBox="0 0 19 20" version="1.1" xmlns="http://www.w3.org/2000/svg" xmlns:xlink="http://www.w3.org/1999/xlink">
    <!-- Generator: Sketch 41.2 (35397) - http://www.bohemiancoding.com/sketch -->
    <title>search</title>
    <desc>Created with Sketch.</desc>
    <defs></defs>
    <g id="Page-2---Landing-Page" stroke="none" stroke-width="1" fill="none" fill-rule="evenodd">
        <g id="Desktop-HD-1920--v2" transform="translate(-832.000000, -273.000000)" fill="#999999">
            <g id="Group-14" transform="translate(817.000000, 268.000000)">
                <g id="Group-12">
                    <g id="search" transform="translate(15.000000, 5.000000)">
                        <g id="Artboard-5">
                            <g id="Group">
                                <path d="M15.2722,14.29248 C15.1009439,14.1197532 14.8404352,14.0751083 14.6224,14.18112 L11.9206,11.45088 C11.7785024,11.2967784 11.5644978,11.2333446 11.3625404,11.2854639 C11.1605831,11.3375832 11.0028834,11.4969429 10.951307,11.7010261 C10.8997306,11.9051093 10.9625036,12.1213666 11.115,12.26496 L13.8168,14.9952 C13.7118926,15.2155303 13.7560724,15.4787812 13.927,15.65184 L17.347,19.10784 C17.5695413,19.3324442 17.9300587,19.3324442 18.1526,19.10784 L18.6922,18.56256 C18.9144646,18.3376761 18.9144646,17.9733639 18.6922,17.74848 L15.2722,14.29248 Z" id="Shape"></path>
                                <path d="M2.9184,11.45472 C0.794094791,9.30874242 0.644566594,5.8782121 2.57393183,3.55180586 C4.50329706,1.22539961 7.87194244,0.774355725 10.3342816,2.51273586 C12.7966208,4.251116 13.5363517,7.60262128 12.0384,10.2336 L12.8706,11.07456 C14.7724392,8.0576449 14.1221019,4.07770846 11.3614385,1.83878847 C8.60077514,-0.400131515 4.61490187,-0.180198812 2.11189007,2.34916049 C-0.391121741,4.87851979 -0.608763478,8.90634962 1.60683442,11.6960726 C3.82243233,14.4857956 7.76091109,15.1429785 10.7464,13.22112 L9.9142,12.38016 C7.64317793,13.7042863 4.77561394,13.3249503 2.9184,11.45472 L2.9184,11.45472 Z" id="Shape"></path>
                                <path d="M4.769,4.05888 C4.54645866,3.83427581 4.18594134,3.83427581 3.9634,4.05888 C2.91311346,5.11879843 2.44939141,6.63493973 2.72468165,8.10887519 C2.99997189,9.58281065 3.97865848,10.8238486 5.339,11.424 C5.62756878,11.5523068 5.96442974,11.4199263 6.0914,11.12832 C6.21837026,10.8367137 6.08736878,10.4963068 5.7988,10.368 C4.78372864,9.9203533 4.05343301,8.99437666 3.84808977,7.89460151 C3.64274654,6.79482636 3.98893421,5.66360166 4.7728,4.87296 C4.99401835,4.64701812 4.99231778,4.28270294 4.769,4.05888 Z" id="Shape"></path>
                            </g>
                        </g>
                    </g>
                </g>
            </g>
        </g>
    </g>
</svg>