<?xml version="1.0" encoding="UTF-8" standalone="no"?>
<svg width="20px" height="14px" viewBox="0 0 20 14" version="1.1" xmlns="http://www.w3.org/2000/svg" xmlns:xlink="http://www.w3.org/1999/xlink">
    <!-- Generator: sketchtool 41.2 (35397) - http://www.bohemiancoding.com/sketch -->
    <title>69B75F00-C94F-48DA-961E-DA8D2BE7C441</title>
    <desc>Created with sketchtool.</desc>
    <defs></defs>
    <g id="Page-2---Landing-Page" stroke="none" stroke-width="1" fill="none" fill-rule="evenodd">
        <g id="Desktop-HD-1366---v2" transform="translate(-644.000000, -8262.000000)" fill="#FFFFFF">
            <g id="Group-12" transform="translate(-277.000000, 30.000000)">
                <g id="Footer" transform="translate(0.000000, 8170.000000)">
                    <g id="Group-Copy-7">
                        <g transform="translate(874.625000, 59.788235)">
                            <path d="M63.5258629,8.79484844 C63.174247,10.1070968 62.5103255,11.3356631 61.6661063,12.4042947 C59.1877563,15.4907923 55.4288796,16.6937613 51.6187514,15.6728405 C49.8281993,15.1930635 48.1979977,14.1981319 46.9556662,12.8383085 C47.1999295,12.9260835 47.4650131,13.0194372 47.7148576,13.0863829 C49.2139245,13.4880566 50.7844791,13.3730898 52.195993,12.7690119 C50.8066092,12.3744028 49.808541,11.1023544 49.7285103,9.65212186 C49.9255516,9.74956856 50.1281742,9.82618592 50.3363779,9.88197394 C50.6278631,9.96007717 50.9305107,9.99652172 51.2443208,9.9913076 C49.7873312,9.26603616 49.004989,7.60529501 49.4652201,6.0542522 L49.4763825,6.01259352 C49.8674563,6.38527924 50.3280768,6.66497586 50.8638253,6.83085406 C50.0943446,5.95492779 49.8264939,4.78924133 50.1222978,3.68528637 C50.2785715,3.10206489 50.5805879,2.55789501 51.006022,2.13609411 C52.139933,4.65008163 54.2826851,6.56371942 56.887804,7.41803266 C56.8923174,7.15134419 56.9384714,6.89581332 57.0054459,6.64586126 C57.4965919,4.81287944 59.3711039,3.73009133 61.2032967,4.22102592 C62.0985728,4.46091441 62.8725668,5.0701522 63.3185794,5.90405511 C64.1071813,5.95908661 64.8876296,5.87798448 65.6335229,5.67599925 C65.182755,6.35890982 64.4836472,6.88597861 63.690532,7.09763558 C64.3735275,7.21366923 65.0483695,7.19356925 65.724716,7.0845731 C65.1088896,7.6339571 64.3904658,8.06655093 63.6222478,8.35185352 C63.6039997,8.50323769 63.5649313,8.64904307 63.5258629,8.79484844 Z" id="Twitter"></path>
                        </g>
                    </g>
                </g>
            </g>
        </g>
    </g>
</svg>