<?xml version="1.0" encoding="UTF-8" standalone="no"?>
<svg width="16px" height="16px" viewBox="0 0 16 16" version="1.1" xmlns="http://www.w3.org/2000/svg" xmlns:xlink="http://www.w3.org/1999/xlink">
    <!-- Generator: Sketch 41.2 (35397) - http://www.bohemiancoding.com/sketch -->
    <title>whatsapp</title>
    <desc>Created with Sketch.</desc>
    <defs></defs>
    <g id="Symbols" stroke="none" stroke-width="1" fill="none" fill-rule="evenodd" opacity="1">
        <g id="share-mobile-smaller" transform="translate(-149.000000, -7.000000)" fill="#009900">
            <g id="share-copy" transform="translate(15.999999, 1.600000)">
                <g id="Group-3" transform="translate(127.199992, 0.000000)">
                    <g id="Group" transform="translate(6.000000, 6.000000)">
                        <g id="whatsapp">
                            <path d="M7.8280208,0 C3.65299082,0 0.25665642,3.3963344 0.25665642,7.57136438 C0.25665642,8.89211832 0.602115961,10.1897732 1.25658983,11.3313809 L0.0130894774,15.0616253 C-0.0166826673,15.1509418 0.00513312839,15.2494978 0.0695538897,15.3182818 C0.118575266,15.3708963 0.186845874,15.3993852 0.25665642,15.3993852 C0.278472215,15.3993852 0.300288011,15.396562 0.32184715,15.3909155 L4.39447122,14.319375 C5.45215232,14.8583535 6.63713501,15.1427288 7.8280208,15.1427288 C12.0030508,15.1427288 15.3993852,11.7463944 15.3993852,7.57136438 C15.3993852,3.3963344 12.0030508,0 7.8280208,0 L7.8280208,0 Z M12.5525522,11.0090205 L12.1013502,11.4604791 C11.5315729,12.030513 10.895835,12.3195081 10.2123589,12.3195081 C10.2121023,12.3195081 10.2123589,12.3195081 10.2121023,12.3195081 C9.29070574,12.3195081 8.29718874,11.7933625 7.25978349,10.7557006 L4.6436846,8.13960169 C3.82520728,7.32138103 3.32241735,6.5265161 3.14917427,5.77682269 C2.93871601,4.86646237 3.2043554,4.03258567 3.93890607,3.29829165 L4.39010806,2.84683301 C4.68038647,2.5565546 5.15006772,2.48520411 5.51374986,2.67769643 C6.19696925,3.03932532 6.90482766,4.22405136 6.98336452,4.35776935 C7.12503887,4.60595611 7.1684138,4.86261253 7.10732957,5.08282374 C7.06061811,5.25093369 6.95538897,5.38798822 6.80216509,5.48089784 C6.59504336,5.65439758 6.35173308,5.87050229 6.30912811,5.92568342 C6.04836519,6.31041139 6.07813733,6.60582293 6.41410059,6.94204284 L8.457599,8.98554125 C8.79638547,9.32458438 9.08640723,9.35230328 9.47729495,9.08769051 C9.52888289,9.04739545 9.7449876,8.80434182 9.91848734,8.59696343 C10.0480988,8.38265532 10.2603537,8.26536334 10.51855,8.26536334 C10.6876866,8.26536334 10.8676028,8.31669462 11.0387926,8.41422406 C11.1753338,8.49455752 12.3603165,9.20267259 12.7216888,9.88563532 C12.9193142,10.2590704 12.8515569,10.7102724 12.5525522,11.0090205 L12.5525522,11.0090205 Z" id="Shape"></path>
                        </g>
                    </g>
                </g>
            </g>
        </g>
    </g>
</svg>