<?xml version="1.0" encoding="UTF-8" standalone="no"?>
<svg width="205px" height="199px" viewBox="0 0 205 199" version="1.1" xmlns="http://www.w3.org/2000/svg" xmlns:xlink="http://www.w3.org/1999/xlink">
    <!-- Generator: Sketch 41.2 (35397) - http://www.bohemiancoding.com/sketch -->
    <title>Artboard</title>
    <desc>Created with Sketch.</desc>
    <defs></defs>
    <g id="Page-3---Single-Content-Page" stroke="none" stroke-width="1" fill="none" fill-rule="evenodd">
        <g id="Artboard" fill="#FFFFFF">
            <g id="zoomin" transform="translate(33.000000, 30.000000)">
                <g id="Group">
                    <path d="M95.4143991,51.5710884 C96.2029478,53.3058957 96.5183673,55.1984127 96.5183673,57.0909297 C96.5183673,57.8794785 96.2029478,58.5103175 95.7298186,59.1411565 C95.2566893,59.6142857 94.4681406,59.9297052 93.5218821,59.9297052 C92.7333333,59.9297052 92.1024943,59.6142857 91.4716553,59.1411565 C90.9985261,58.5103175 90.6831066,57.8794785 90.6831066,57.0909297 C90.6831066,54.7252834 89.8945578,52.5173469 88.1597506,50.9402494 C86.4249433,49.2054422 84.3747166,48.4168934 82.0090703,48.4168934 C81.2205215,48.4168934 80.5896825,48.1014739 79.9588435,47.6283447 C79.4857143,47.1552154 79.1702948,46.3666667 79.1702948,45.5781179 C79.1702948,44.7895692 79.4857143,44.0010204 79.9588435,43.5278912 C80.4319728,43.0547619 81.2205215,42.7393424 82.0090703,42.7393424 C84.0592971,42.7393424 85.9518141,43.0547619 87.6866213,43.8433107 C89.4214286,44.6318594 90.9985261,45.5781179 92.2602041,46.9975057 C93.5218821,48.2591837 94.6258503,49.6785714 95.4143991,51.5710884 Z M112.447052,47.1552154 C110.396825,42.5816327 107.71576,38.4811791 104.246145,35.0115646 C100.776531,31.5419501 96.6760771,28.8608844 92.1024943,26.8106576 C87.5289116,24.7604308 82.4821995,23.8141723 77.2777778,23.8141723 C72.073356,23.8141723 67.1843537,24.7604308 62.4530612,26.8106576 C57.8794785,28.8608844 53.7790249,31.5419501 50.3094104,35.0115646 C46.8397959,38.4811791 44.0010204,42.5816327 42.1085034,47.1552154 C40.0582766,51.7287982 39.1120181,56.7755102 39.1120181,61.979932 C39.1120181,65.764966 39.5851474,69.3922902 40.6891156,73.0196145 C41.7930839,76.6469388 43.3701814,79.9588435 45.4204082,82.9553288 L24.9181406,103.615306 C24.2873016,104.246145 23.8141723,105.192404 23.8141723,106.296372 C23.8141723,106.927211 24.1295918,107.71576 24.9181406,108.819728 C25.5489796,109.923696 26.4952381,110.869955 27.4414966,111.816213 C28.5454649,112.762472 29.4917234,113.70873 30.4379819,114.339569 C31.3842404,115.128118 32.3304989,115.443537 32.9613379,115.443537 C34.0653061,115.443537 35.0115646,115.128118 35.6424036,114.339569 L56.302381,93.8373016 C59.456576,95.8875283 62.7684807,97.4646259 66.395805,98.5685941 C70.0231293,99.6725624 73.6504535,100.145692 77.2777778,100.145692 C82.4821995,100.145692 87.5289116,99.1994331 92.1024943,97.1492063 C96.6760771,95.0989796 100.776531,92.4179138 104.246145,88.9482993 C107.71576,85.4786848 110.554535,81.3782313 112.447052,76.8046485 C114.497279,72.2310658 115.443537,67.1843537 115.443537,61.979932 C115.285828,56.6178005 114.339569,51.7287982 112.447052,47.1552154 Z M105.350113,73.965873 C103.773016,77.5931973 101.565079,80.905102 98.7263039,83.5861678 C96.0452381,86.2672336 92.7333333,88.4751701 88.9482993,90.0522676 C85.1632653,91.6293651 81.2205215,92.4179138 77.120068,92.4179138 C73.0196145,92.4179138 69.0768707,91.6293651 65.2918367,90.0522676 C61.5068027,88.4751701 58.3526077,86.2672336 55.671542,83.5861678 C52.8327664,80.905102 50.7825397,77.5931973 49.0477324,73.965873 C47.4706349,70.3385488 46.5243764,66.2380952 46.5243764,61.979932 C46.5243764,57.7217687 47.3129252,53.9367347 49.0477324,50.1517007 C50.6248299,46.3666667 52.8327664,43.2124717 55.671542,40.3736961 C58.3526077,37.5349206 61.6645125,35.4846939 65.2918367,33.7498866 C68.919161,32.1727891 72.8619048,31.3842404 77.120068,31.3842404 C81.3782313,31.3842404 85.3209751,32.1727891 88.9482993,33.7498866 C92.7333333,35.3269841 95.8875283,37.5349206 98.7263039,40.3736961 C101.40737,43.2124717 103.615306,46.3666667 105.350113,50.1517007 C106.927211,53.7790249 107.873469,57.7217687 107.873469,61.979932 C107.71576,66.2380952 106.927211,70.180839 105.350113,73.965873 Z M139.1,131.529932 L139.1,124.275283 L139.1,104.876984 L104.876984,139.1 L139.1,139.1 L139.1,131.529932 L139.1,131.529932 Z M2.55795385e-13,104.876984 L2.55795385e-13,139.1 L34.2230159,139.1 L2.55795385e-13,104.876984 Z M34.2230159,0 L2.55795385e-13,0 L2.55795385e-13,34.2230159 L34.2230159,0 Z M139.1,0 L104.876984,0 L139.1,34.2230159 L139.1,0 Z" id="Shape" transform="translate(69.550000, 69.550000) scale(-1, 1) translate(-69.550000, -69.550000) "></path>
                </g>
            </g>
        </g>
    </g>
</svg>